<svg width="42" height="40" viewBox="0 0 42 40" fill="none" xmlns="http://www.w3.org/2000/svg">
<path d="M19.7343 26.392C20.1076 26.392 20.2943 26.5787 20.2943 26.952V28.52C20.2943 28.8933 20.1076 29.08 19.7343 29.08H18.0543C17.9049 29.08 17.8303 29.1547 17.8303 29.304V39.44C17.8303 39.8133 17.6436 40 17.2703 40H15.4223C15.0489 40 14.8623 39.8133 14.8623 39.44V29.304C14.8623 29.1547 14.7876 29.08 14.6383 29.08H1.31025C0.936917 29.08 0.75025 28.8933 0.75025 28.52V27.064C0.75025 26.9147 0.787583 26.6907 0.86225 26.392L9.48625 1.248C9.59825 0.949331 9.82225 0.799997 10.1583 0.799997H12.1743C12.5849 0.799997 12.7343 1.00533 12.6223 1.416L4.22225 26.112C4.18492 26.1867 4.18492 26.2613 4.22225 26.336C4.25958 26.3733 4.31558 26.392 4.39025 26.392H14.6383C14.7876 26.392 14.8623 26.3173 14.8623 26.168V16.872C14.8623 16.4987 15.0489 16.312 15.4223 16.312H17.2703C17.6436 16.312 17.8303 16.4987 17.8303 16.872V26.168C17.8303 26.3173 17.9049 26.392 18.0543 26.392H19.7343ZM27.7681 37.088C27.7307 37.1627 27.7307 37.2373 27.7681 37.312C27.8054 37.3493 27.8614 37.368 27.9361 37.368H41.3761C41.7494 37.368 41.9361 37.5547 41.9361 37.928V39.44C41.9361 39.8133 41.7494 40 41.3761 40H24.6321C24.2587 40 24.0721 39.8133 24.0721 39.44V37.76C24.0721 37.4987 24.1281 37.256 24.2401 37.032C24.5387 36.5093 24.7814 36.1173 24.9681 35.856C25.9014 34.3253 27.3014 32.0107 29.1681 28.912C31.0347 25.776 32.6401 23.0507 33.9841 20.736C36.4481 16.3307 37.6801 12.728 37.6801 9.928C37.6801 7.83733 37.1947 6.15733 36.2241 4.888C35.2534 3.61867 33.9467 2.984 32.3041 2.984C30.6987 2.984 29.4107 3.61867 28.4401 4.888C27.5067 6.12 27.0587 7.78133 27.0961 9.872V11.888C27.0961 12.2613 26.9094 12.448 26.5361 12.448H24.5761C24.2027 12.448 24.0161 12.2613 24.0161 11.888V9.76C24.0907 6.96 24.8934 4.70133 26.4241 2.984C27.9547 1.22933 29.9334 0.352 32.3601 0.352C34.8614 0.352 36.8774 1.22933 38.4081 2.984C39.9387 4.73867 40.7041 7.05333 40.7041 9.928C40.7041 13.3253 39.3601 17.3573 36.6721 22.024C35.6267 23.8907 33.9841 26.6533 31.7441 30.312L27.7681 37.088Z" fill="white"/>
</svg>
