<svg width="57" height="57" viewBox="0 0 57 57" fill="none" xmlns="http://www.w3.org/2000/svg">
<path d="M21.6692 3.00833L23.5603 2.35719L22.9091 0.466153L21.0181 1.11729L21.6692 3.00833ZM17.8871 4.3106L17.236 2.41956L15.345 3.0707L15.9961 4.96174L17.8871 4.3106ZM25.7008 27.003L26.3519 28.8941L28.243 28.2429L27.5918 26.3519L25.7008 27.003ZM4.89938 34.1655L5.55051 36.0566L4.89938 34.1655ZM3.00834 34.8167L2.3572 32.9256L0.466167 33.5768L1.1173 35.4678L3.00834 34.8167ZM4.31061 38.5988L2.41958 39.2499L3.07071 41.1409L4.96175 40.4898L4.31061 38.5988ZM27.0031 30.7851L28.8941 30.134L28.243 28.2429L26.3519 28.8941L27.0031 30.7851ZM34.8167 53.4776L32.9257 54.1287L33.5768 56.0197L35.4678 55.3686L34.8167 53.4776ZM38.5988 52.1753L39.2499 54.0663L41.1409 53.4152L40.4898 51.5242L38.5988 52.1753ZM30.7851 29.4828L30.134 27.5918L28.243 28.2429L28.8941 30.134L30.7851 29.4828ZM53.4776 21.6692L54.1287 23.5602L56.0198 22.9091L55.3686 21.0181L53.4776 21.6692ZM52.1753 17.8871L54.0663 17.236L53.4152 15.345L51.5242 15.9961L52.1753 17.8871ZM29.4829 25.7008L27.5918 26.3519L28.243 28.2429L30.134 27.5918L29.4829 25.7008ZM19.7782 3.65946L20.4293 5.5505L24.2114 4.24823L23.5603 2.35719L19.7782 3.65946ZM18.5383 6.20164L22.3204 4.89936L21.0181 1.11729L17.236 2.41956L18.5383 6.20164ZM20.4293 5.5505L19.7782 3.65946L15.9961 4.96174L16.6472 6.85277L20.4293 5.5505ZM27.5918 26.3519L20.4293 5.5505L16.6472 6.85277L23.8097 27.6542L27.5918 26.3519ZM5.55051 36.0566L26.3519 28.8941L25.0496 25.112L4.24824 32.2745L5.55051 36.0566ZM3.65948 36.7077L5.55051 36.0566L4.24824 32.2745L2.3572 32.9256L3.65948 36.7077ZM6.20165 37.9476L4.89938 34.1655L1.1173 35.4678L2.41958 39.2499L6.20165 37.9476ZM5.55051 36.0566L3.65948 36.7077L4.96175 40.4898L6.85279 39.8387L5.55051 36.0566ZM26.3519 28.8941L5.55051 36.0566L6.85279 39.8387L27.6542 32.6762L26.3519 28.8941ZM36.0566 50.9354L28.8941 30.134L25.112 31.4363L32.2745 52.2377L36.0566 50.9354ZM36.7077 52.8264L36.0566 50.9354L32.2745 52.2377L32.9257 54.1287L36.7077 52.8264ZM37.9476 50.2843L34.1656 51.5865L35.4678 55.3686L39.2499 54.0663L37.9476 50.2843ZM36.0566 50.9354L36.7077 52.8264L40.4898 51.5242L39.8387 49.6331L36.0566 50.9354ZM28.8941 30.134L36.0566 50.9354L39.8387 49.6331L32.6762 28.8317L28.8941 30.134ZM50.9354 20.4293L30.134 27.5918L31.4363 31.3739L52.2377 24.2114L50.9354 20.4293ZM52.8264 19.7782L50.9354 20.4293L52.2377 24.2114L54.1287 23.5602L52.8264 19.7782ZM50.2843 18.5383L51.5865 22.3203L55.3686 21.0181L54.0663 17.236L50.2843 18.5383ZM50.9354 20.4293L52.8264 19.7782L51.5242 15.9961L49.6331 16.6472L50.9354 20.4293ZM30.134 27.5918L50.9354 20.4293L49.6331 16.6472L28.8317 23.8097L30.134 27.5918ZM20.4293 5.5505L27.5918 26.3519L31.3739 25.0496L24.2114 4.24823L20.4293 5.5505Z" fill="#AD47BF"/>
</svg>
