<svg width="25" height="25" viewBox="0 0 25 25" fill="none" xmlns="http://www.w3.org/2000/svg">
<path d="M9.33643 2.29013L10.6609 1.58592L9.95665 0.261498L8.63222 0.965706L9.33643 2.29013ZM10.2754 4.05602L8.95095 4.76023L10.2754 4.05602ZM5.80464 4.16801L5.10043 2.84359L3.77601 3.5478L4.48022 4.87222L5.80464 4.16801ZM6.74358 5.93391L8.06801 5.2297L6.74358 5.93391ZM9.81621 11.7127L10.5503 13.0208L11.829 12.3032L11.1406 11.0085L9.81621 11.7127ZM4.10671 14.9167L3.37265 13.6085L4.10671 14.9167ZM2.36257 15.8954L1.6285 14.5873L0.320394 15.3214L1.05446 16.6295L2.36257 15.8954ZM4.32008 19.3837L3.01197 20.1178L3.74604 21.4259L5.05415 20.6918L4.32008 19.3837ZM6.06422 18.4049L5.33016 17.0968L5.33016 17.0968L6.06422 18.4049ZM11.6946 15.2454L13.019 14.5412L12.2986 13.1864L10.9605 13.9373L11.6946 15.2454ZM14.7246 20.944L16.049 20.2398L14.7246 20.944ZM15.6635 22.7099L14.3391 23.4141L15.0433 24.7385L16.3678 24.0343L15.6635 22.7099ZM19.1953 20.832L19.8995 22.1564L21.224 21.4522L20.5198 20.1278L19.1953 20.832ZM18.2564 19.0661L16.932 19.7703L18.2564 19.0661ZM15.1838 13.2874L14.4497 11.9793L13.1709 12.6969L13.8593 13.9916L15.1838 13.2874ZM20.8933 10.0834L21.6273 11.3915L20.8933 10.0834ZM22.6374 9.10463L23.3715 10.4127L24.6796 9.67867L23.9455 8.37056L22.6374 9.10463ZM20.6799 5.61634L21.988 4.88227L21.2539 3.57417L19.9458 4.30823L20.6799 5.61634ZM18.9358 6.5951L19.6698 7.9032L18.9358 6.5951ZM13.3054 9.75466L11.981 10.4589L12.7013 11.8137L14.0395 11.0628L13.3054 9.75466ZM8.01201 2.99433L8.95095 4.76023L11.5998 3.35181L10.6609 1.58592L8.01201 2.99433ZM6.50885 5.49243L10.0406 3.61455L8.63222 0.965706L5.10043 2.84359L6.50885 5.49243ZM8.06801 5.2297L7.12906 3.46381L4.48022 4.87222L5.41916 6.63812L8.06801 5.2297ZM11.1406 11.0085L8.06801 5.2297L5.41916 6.63812L8.49179 12.4169L11.1406 11.0085ZM4.84078 16.2248L10.5503 13.0208L9.08214 10.4046L3.37265 13.6085L4.84078 16.2248ZM3.09663 17.2035L4.84078 16.2248L3.37265 13.6085L1.6285 14.5873L3.09663 17.2035ZM5.62819 18.6496L3.67068 15.1613L1.05446 16.6295L3.01197 20.1178L5.62819 18.6496ZM5.33016 17.0968L3.58601 18.0756L5.05415 20.6918L6.79829 19.7131L5.33016 17.0968ZM10.9605 13.9373L5.33016 17.0968L6.79829 19.7131L12.4286 16.5535L10.9605 13.9373ZM16.049 20.2398L13.019 14.5412L10.3702 15.9496L13.4002 21.6482L16.049 20.2398ZM16.988 22.0057L16.049 20.2398L13.4002 21.6482L14.3391 23.4141L16.988 22.0057ZM18.4911 19.5076L14.9593 21.3855L16.3678 24.0343L19.8995 22.1564L18.4911 19.5076ZM16.932 19.7703L17.8709 21.5362L20.5198 20.1278L19.5808 18.3619L16.932 19.7703ZM13.8593 13.9916L16.932 19.7703L19.5808 18.3619L16.5082 12.5832L13.8593 13.9916ZM20.1592 8.77528L14.4497 11.9793L15.9178 14.5955L21.6273 11.3915L20.1592 8.77528ZM21.9033 7.79652L20.1592 8.77528L21.6273 11.3915L23.3715 10.4127L21.9033 7.79652ZM19.3718 6.35041L21.3293 9.8387L23.9455 8.37056L21.988 4.88227L19.3718 6.35041ZM19.6698 7.9032L21.414 6.92445L19.9458 4.30823L18.2017 5.28699L19.6698 7.9032ZM14.0395 11.0628L19.6698 7.9032L18.2017 5.28699L12.5713 8.44655L14.0395 11.0628ZM8.95095 4.76023L11.981 10.4589L14.6298 9.05046L11.5998 3.35181L8.95095 4.76023Z" fill="#AD47BF"/>
</svg>
