<svg width="64" height="64" viewBox="0 0 64 64" fill="none" xmlns="http://www.w3.org/2000/svg">
<g filter="url(#filter0_d)">
<mask id="path-1-inside-1" fill="white">
<path fill-rule="evenodd" clip-rule="evenodd" d="M30.0111 16.4914L20.4915 26.011L8.41199 13.9316C8.14796 13.6683 8.00001 13.3105 8.00001 12.9374V5.40625C8.00001 4.62951 8.62952 4 9.40626 4H16.9374C17.3106 4 17.6683 4.14795 17.9316 4.41199L30.0111 16.4914ZM42.8732 30.6242C44.4373 29.0601 46.9733 29.0601 48.5373 30.6242C50.1014 32.1883 50.1014 34.7239 48.5373 36.288L40.3031 44.5222C38.739 46.0863 36.2034 46.0863 34.6393 44.5222C33.0752 42.9581 33.0752 40.4221 34.6393 38.8581L42.8732 30.6242ZM49.6623 39.1408C51.5872 41.0645 54.7886 44.2648 54.7886 44.2648L54.7911 44.2673C56.6863 46.1683 56.1461 49.0464 54.5956 50.5826C53.5768 51.6047 50.587 53.0849 48.2828 50.7742L43.1548 45.6483L49.6623 39.1408ZM9.20998 44.2662L9.20887 44.267C7.31373 46.1683 7.85389 49.046 9.40442 50.5826C10.4232 51.6047 13.413 53.0846 15.7172 50.7738L20.8452 45.648L14.3377 39.1408C12.4128 41.0645 9.21143 44.2648 9.21143 44.2648L9.20998 44.2662ZM56 12.9374V5.40625C56 4.62951 55.3705 4 54.5937 4H47.0626C46.6894 4 46.332 4.14795 46.0684 4.41199L22.48 27.9999L32 37.5199L55.588 13.932C55.852 13.6683 56 13.3105 56 12.9374ZM15.4627 30.6242C17.0267 29.0601 19.5627 29.0601 21.1268 30.6242L29.3607 38.8581C30.9248 40.4221 30.9248 42.9581 29.3607 44.5222C27.7966 46.0863 25.2606 46.0863 23.6965 44.5222L15.4627 36.288C13.8986 34.7239 13.8986 32.1883 15.4627 30.6242Z"/>
</mask>
<path fill-rule="evenodd" clip-rule="evenodd" d="M30.0111 16.4914L20.4915 26.011L8.41199 13.9316C8.14796 13.6683 8.00001 13.3105 8.00001 12.9374V5.40625C8.00001 4.62951 8.62952 4 9.40626 4H16.9374C17.3106 4 17.6683 4.14795 17.9316 4.41199L30.0111 16.4914ZM42.8732 30.6242C44.4373 29.0601 46.9733 29.0601 48.5373 30.6242C50.1014 32.1883 50.1014 34.7239 48.5373 36.288L40.3031 44.5222C38.739 46.0863 36.2034 46.0863 34.6393 44.5222C33.0752 42.9581 33.0752 40.4221 34.6393 38.8581L42.8732 30.6242ZM49.6623 39.1408C51.5872 41.0645 54.7886 44.2648 54.7886 44.2648L54.7911 44.2673C56.6863 46.1683 56.1461 49.0464 54.5956 50.5826C53.5768 51.6047 50.587 53.0849 48.2828 50.7742L43.1548 45.6483L49.6623 39.1408ZM9.20998 44.2662L9.20887 44.267C7.31373 46.1683 7.85389 49.046 9.40442 50.5826C10.4232 51.6047 13.413 53.0846 15.7172 50.7738L20.8452 45.648L14.3377 39.1408C12.4128 41.0645 9.21143 44.2648 9.21143 44.2648L9.20998 44.2662ZM56 12.9374V5.40625C56 4.62951 55.3705 4 54.5937 4H47.0626C46.6894 4 46.332 4.14795 46.0684 4.41199L22.48 27.9999L32 37.5199L55.588 13.932C55.852 13.6683 56 13.3105 56 12.9374ZM15.4627 30.6242C17.0267 29.0601 19.5627 29.0601 21.1268 30.6242L29.3607 38.8581C30.9248 40.4221 30.9248 42.9581 29.3607 44.5222C27.7966 46.0863 25.2606 46.0863 23.6965 44.5222L15.4627 36.288C13.8986 34.7239 13.8986 32.1883 15.4627 30.6242Z" fill="url(#paint0_linear)"/>
<path fill-rule="evenodd" clip-rule="evenodd" d="M30.0111 16.4914L20.4915 26.011L8.41199 13.9316C8.14796 13.6683 8.00001 13.3105 8.00001 12.9374V5.40625C8.00001 4.62951 8.62952 4 9.40626 4H16.9374C17.3106 4 17.6683 4.14795 17.9316 4.41199L30.0111 16.4914ZM42.8732 30.6242C44.4373 29.0601 46.9733 29.0601 48.5373 30.6242C50.1014 32.1883 50.1014 34.7239 48.5373 36.288L40.3031 44.5222C38.739 46.0863 36.2034 46.0863 34.6393 44.5222C33.0752 42.9581 33.0752 40.4221 34.6393 38.8581L42.8732 30.6242ZM49.6623 39.1408C51.5872 41.0645 54.7886 44.2648 54.7886 44.2648L54.7911 44.2673C56.6863 46.1683 56.1461 49.0464 54.5956 50.5826C53.5768 51.6047 50.587 53.0849 48.2828 50.7742L43.1548 45.6483L49.6623 39.1408ZM9.20998 44.2662L9.20887 44.267C7.31373 46.1683 7.85389 49.046 9.40442 50.5826C10.4232 51.6047 13.413 53.0846 15.7172 50.7738L20.8452 45.648L14.3377 39.1408C12.4128 41.0645 9.21143 44.2648 9.21143 44.2648L9.20998 44.2662ZM56 12.9374V5.40625C56 4.62951 55.3705 4 54.5937 4H47.0626C46.6894 4 46.332 4.14795 46.0684 4.41199L22.48 27.9999L32 37.5199L55.588 13.932C55.852 13.6683 56 13.3105 56 12.9374ZM15.4627 30.6242C17.0267 29.0601 19.5627 29.0601 21.1268 30.6242L29.3607 38.8581C30.9248 40.4221 30.9248 42.9581 29.3607 44.5222C27.7966 46.0863 25.2606 46.0863 23.6965 44.5222L15.4627 36.288C13.8986 34.7239 13.8986 32.1883 15.4627 30.6242Z" fill="url(#paint1_linear)"/>
<path d="M20.4915 26.011L19.7844 26.7182L20.4915 27.4253L21.1986 26.7182L20.4915 26.011ZM30.0111 16.4914L30.7182 17.1985L31.4253 16.4914L30.7182 15.7843L30.0111 16.4914ZM8.41199 13.9316L9.1191 13.2245L9.11812 13.2235L8.41199 13.9316ZM17.9316 4.41199L17.2236 5.11811L17.2245 5.11909L17.9316 4.41199ZM48.5373 30.6242L49.2445 29.9171H49.2445L48.5373 30.6242ZM42.8732 30.6242L42.1661 29.9171H42.1661L42.8732 30.6242ZM48.5373 36.288L47.8302 35.5809H47.8302L48.5373 36.288ZM40.3031 44.5222L41.0102 45.2293H41.0102L40.3031 44.5222ZM34.6393 44.5222L35.3464 43.8151L34.6393 44.5222ZM34.6393 38.8581L35.3464 39.5652L34.6393 38.8581ZM54.7886 44.2648L55.4957 43.5577L55.4956 43.5576L54.7886 44.2648ZM49.6623 39.1408L50.3693 38.4335L49.6621 37.7268L48.9552 38.4337L49.6623 39.1408ZM54.7911 44.2673L55.4993 43.5613L55.4982 43.5602L54.7911 44.2673ZM54.5956 50.5826L53.8917 49.8723L53.8873 49.8767L54.5956 50.5826ZM48.2828 50.7742L48.991 50.0681L48.9898 50.0669L48.2828 50.7742ZM43.1548 45.6483L42.4477 44.9412L41.7404 45.6485L42.4478 46.3556L43.1548 45.6483ZM9.20887 44.267L8.62668 43.4539L8.55919 43.5022L8.5006 43.561L9.20887 44.267ZM9.20998 44.2662L9.79217 45.0792L9.8518 45.0365L9.90456 44.9856L9.20998 44.2662ZM9.40442 50.5826L10.1127 49.8767L10.1083 49.8723L9.40442 50.5826ZM15.7172 50.7738L15.0102 50.0665L15.0091 50.0677L15.7172 50.7738ZM20.8452 45.648L21.5522 46.3552L22.2596 45.6481L21.5523 44.9408L20.8452 45.648ZM14.3377 39.1408L15.0447 38.4336L14.3378 37.7268L13.6307 38.4335L14.3377 39.1408ZM9.21143 44.2648L9.90601 44.9842L9.91227 44.9782L9.91842 44.972L9.21143 44.2648ZM46.0684 4.41199L46.7755 5.1191L46.776 5.1186L46.0684 4.41199ZM22.48 27.9999L21.7729 27.2928L21.0658 27.9999L21.7729 28.707L22.48 27.9999ZM32 37.5199L31.2929 38.227L32 38.9341L32.7071 38.227L32 37.5199ZM55.588 13.932L54.8814 13.2244L54.8809 13.2249L55.588 13.932ZM21.1268 30.6242L21.8339 29.9171L21.1268 30.6242ZM15.4627 30.6242L14.7555 29.9171H14.7555L15.4627 30.6242ZM29.3607 38.8581L28.6536 39.5652L29.3607 38.8581ZM29.3607 44.5222L28.6536 43.8151L29.3607 44.5222ZM23.6965 44.5222L22.9894 45.2293L22.9894 45.2293L23.6965 44.5222ZM15.4627 36.288L16.1698 35.5809L16.1698 35.5809L15.4627 36.288ZM21.1986 26.7182L30.7182 17.1985L29.304 15.7843L19.7844 25.3039L21.1986 26.7182ZM7.70489 14.6387L19.7844 26.7182L21.1986 25.3039L9.1191 13.2245L7.70489 14.6387ZM7.00001 12.9374C7.00001 13.5751 7.25292 14.188 7.70587 14.6397L9.11812 13.2235C9.04299 13.1486 9.00001 13.0459 9.00001 12.9374H7.00001ZM7.00001 5.40625V12.9374H9.00001V5.40625H7.00001ZM9.40626 3C8.07724 3 7.00001 4.07723 7.00001 5.40625H9.00001C9.00001 5.1818 9.18181 5 9.40626 5V3ZM16.9374 3H9.40626V5H16.9374V3ZM18.6397 3.70586C18.188 3.25291 17.5752 3 16.9374 3V5C17.0459 5 17.1486 5.04299 17.2236 5.11811L18.6397 3.70586ZM30.7182 15.7843L18.6387 3.70488L17.2245 5.11909L29.304 17.1985L30.7182 15.7843ZM49.2445 29.9171C47.2898 27.9625 44.1207 27.9625 42.1661 29.9171L43.5803 31.3313C44.7538 30.1577 46.6567 30.1577 47.8302 31.3313L49.2445 29.9171ZM49.2445 36.9951C51.1991 35.0405 51.1991 31.8717 49.2445 29.9171L47.8302 31.3313C49.0038 32.5049 49.0038 34.4073 47.8302 35.5809L49.2445 36.9951ZM41.0102 45.2293L49.2445 36.9951L47.8302 35.5809L39.596 43.8151L41.0102 45.2293ZM33.9322 45.2293C35.8868 47.1839 39.0556 47.1839 41.0102 45.2293L39.596 43.8151C38.4224 44.9887 36.52 44.9887 35.3464 43.8151L33.9322 45.2293ZM33.9322 38.151C31.9776 40.1056 31.9776 43.2747 33.9322 45.2293L35.3464 43.8151C34.1728 42.6416 34.1728 40.7387 35.3464 39.5652L33.9322 38.151ZM42.1661 29.9171L33.9322 38.151L35.3464 39.5652L43.5803 31.3313L42.1661 29.9171ZM54.7886 44.2648C55.4956 43.5576 55.4955 43.5575 55.4955 43.5575C55.4955 43.5575 55.4955 43.5575 55.4954 43.5574C55.4953 43.5573 55.4952 43.5572 55.495 43.557C55.4946 43.5566 55.494 43.556 55.4932 43.5552C55.4917 43.5537 55.4894 43.5514 55.4863 43.5483C55.4802 43.5422 55.4711 43.5331 55.4591 43.5211C55.4352 43.4972 55.3999 43.4619 55.3542 43.4163C55.2629 43.325 55.1304 43.1925 54.9652 43.0274C54.635 42.6973 54.1747 42.2372 53.6542 41.7169C52.6133 40.6764 51.3317 39.3953 50.3693 38.4335L48.9554 39.8481C49.9178 40.8099 51.1993 42.0909 52.2403 43.1314C52.7608 43.6517 53.2211 44.1118 53.5513 44.4419C53.7164 44.607 53.849 44.7395 53.9403 44.8307C53.9859 44.8764 54.0212 44.9117 54.0452 44.9356C54.0571 44.9476 54.0662 44.9567 54.0723 44.9628C54.0754 44.9658 54.0777 44.9681 54.0793 44.9697C54.08 44.9705 54.0806 44.971 54.081 44.9714C54.0812 44.9716 54.0813 44.9718 54.0814 44.9719C54.0815 44.9719 54.0815 44.972 54.0815 44.972C54.0816 44.972 54.0816 44.972 54.7886 44.2648ZM55.4982 43.5602L55.4957 43.5577L54.0815 44.9719L54.084 44.9745L55.4982 43.5602ZM55.2994 51.293C57.1363 49.473 57.8836 45.953 55.4993 43.5613L54.0829 44.9734C55.489 46.3837 55.1559 48.6197 53.8917 49.8723L55.2994 51.293ZM47.5747 51.4803C48.996 52.9056 50.6687 53.1693 52.0981 52.9125C53.4755 52.6649 54.6597 51.9348 55.3038 51.2886L53.8873 49.8767C53.5126 50.2526 52.6925 50.7736 51.7444 50.944C50.8481 51.1051 49.8739 50.9535 48.9909 50.0681L47.5747 51.4803ZM42.4478 46.3556L47.5759 51.4814L48.9898 50.0669L43.8617 44.9411L42.4478 46.3556ZM48.9552 38.4337L42.4477 44.9412L43.8619 46.3554L50.3695 39.8479L48.9552 38.4337ZM9.79106 45.08L9.79217 45.0792L8.62779 43.4531L8.62668 43.4539L9.79106 45.08ZM10.1083 49.8723C8.84405 48.6194 8.51101 46.3837 9.91713 44.9729L8.5006 43.561C6.11645 45.953 6.86372 49.4726 8.70051 51.2929L10.1083 49.8723ZM15.0091 50.0677C14.1261 50.9532 13.1518 51.1048 12.2556 50.9438C11.3074 50.7735 10.4873 50.2525 10.1127 49.8767L8.69618 51.2886C9.34033 51.9348 10.5245 52.6649 11.902 52.9123C13.3313 53.1691 15.0041 52.9052 16.4253 51.4799L15.0091 50.0677ZM20.1383 44.9407L15.0102 50.0665L16.4241 51.4811L21.5522 46.3552L20.1383 44.9407ZM13.6306 39.8479L20.1381 46.3551L21.5523 44.9408L15.0447 38.4336L13.6306 39.8479ZM9.21143 44.2648C9.91842 44.972 9.91843 44.972 9.91845 44.972C9.91848 44.972 9.91851 44.9719 9.91856 44.9719C9.91866 44.9718 9.91881 44.9716 9.919 44.9714C9.91939 44.971 9.91997 44.9705 9.92074 44.9697C9.92229 44.9681 9.9246 44.9658 9.92766 44.9628C9.93377 44.9567 9.94288 44.9476 9.95484 44.9356C9.97875 44.9117 10.0141 44.8764 10.0597 44.8307C10.151 44.7395 10.2836 44.607 10.4487 44.4419C10.7789 44.1118 11.2392 43.6517 11.7597 43.1314C12.8007 42.0909 14.0822 40.8099 15.0446 39.8481L13.6307 38.4335C12.6683 39.3953 11.3867 40.6764 10.3458 41.7169C9.82529 42.2372 9.36496 42.6973 9.03475 43.0274C8.86965 43.1925 8.73707 43.325 8.64577 43.4163C8.60012 43.4619 8.56479 43.4972 8.54087 43.5211C8.52891 43.5331 8.51981 43.5422 8.51369 43.5483C8.51063 43.5514 8.50832 43.5537 8.50678 43.5552C8.506 43.556 8.50542 43.5566 8.50503 43.557C8.50484 43.5572 8.50469 43.5573 8.50459 43.5574C8.50454 43.5575 8.50451 43.5575 8.50448 43.5575C8.50446 43.5575 8.50445 43.5576 9.21143 44.2648ZM9.90456 44.9856L9.90601 44.9842L8.51685 43.5454L8.5154 43.5468L9.90456 44.9856ZM55 5.40625V12.9374H57V5.40625H55ZM54.5937 5C54.8182 5 55 5.1818 55 5.40625H57C57 4.07723 55.9228 3 54.5937 3V5ZM47.0626 5H54.5937V3H47.0626V5ZM46.776 5.1186C46.8517 5.04272 46.9544 5 47.0626 5V3C46.4244 3 45.8123 3.25317 45.3608 3.70537L46.776 5.1186ZM23.1871 28.707L46.7755 5.1191L45.3613 3.70487L21.7729 27.2928L23.1871 28.707ZM32.7071 36.8128L23.1871 27.2928L21.7729 28.707L31.2929 38.227L32.7071 36.8128ZM54.8809 13.2249L31.2929 36.8128L32.7071 38.227L56.2951 14.6391L54.8809 13.2249ZM55 12.9374C55 13.0458 54.9571 13.1488 54.8814 13.2244L56.2946 14.6396C56.747 14.1878 57 13.5752 57 12.9374H55ZM21.8339 29.9171C19.8793 27.9625 16.7102 27.9625 14.7555 29.9171L16.1698 31.3313C17.3433 30.1577 19.2462 30.1577 20.4197 31.3313L21.8339 29.9171ZM30.0678 38.151L21.8339 29.9171L20.4197 31.3313L28.6536 39.5652L30.0678 38.151ZM30.0678 45.2293C32.0224 43.2747 32.0224 40.1056 30.0678 38.151L28.6536 39.5652C29.8272 40.7387 29.8272 42.6416 28.6536 43.8151L30.0678 45.2293ZM22.9894 45.2293C24.944 47.1839 28.1132 47.1839 30.0678 45.2293L28.6536 43.8151C27.4801 44.9887 25.5772 44.9887 24.4036 43.8151L22.9894 45.2293ZM14.7555 36.9951L22.9894 45.2293L24.4037 43.8151L16.1698 35.5809L14.7555 36.9951ZM14.7555 29.9171C12.8009 31.8717 12.8009 35.0405 14.7555 36.9951L16.1698 35.5809C14.9962 34.4073 14.9962 32.5049 16.1698 31.3313L14.7555 29.9171Z" fill="white" fill-opacity="0.0782099" mask="url(#path-1-inside-1)"/>
</g>
<defs>
<filter id="filter0_d" x="0" y="0" width="64" height="64" filterUnits="userSpaceOnUse" color-interpolation-filters="sRGB">
<feFlood flood-opacity="0" result="BackgroundImageFix"/>
<feColorMatrix in="SourceAlpha" type="matrix" values="0 0 0 0 0 0 0 0 0 0 0 0 0 0 0 0 0 0 127 0"/>
<feOffset dy="4"/>
<feGaussianBlur stdDeviation="4"/>
<feColorMatrix type="matrix" values="0 0 0 0 0 0 0 0 0 0.0037911 0 0 0 0 0.170599 0 0 0 0.157184 0"/>
<feBlend mode="normal" in2="BackgroundImageFix" result="effect1_dropShadow"/>
<feBlend mode="normal" in="SourceGraphic" in2="effect1_dropShadow" result="shape"/>
</filter>
<linearGradient id="paint0_linear" x1="8" y1="4" x2="8" y2="52" gradientUnits="userSpaceOnUse">
<stop stop-color="#4D4F95"/>
<stop offset="1" stop-color="#2B2D66"/>
</linearGradient>
<linearGradient id="paint1_linear" x1="56" y1="4" x2="8" y2="4" gradientUnits="userSpaceOnUse">
<stop stop-color="#6357F6"/>
<stop offset="1" stop-color="#E6606C"/>
</linearGradient>
</defs>
</svg>
