<svg width="174" height="188" viewBox="0 0 174 188" fill="none" xmlns="http://www.w3.org/2000/svg">
<g filter="url(#filter0_d)">
<path d="M79 14.6188C83.9504 11.7607 90.0496 11.7607 95 14.6188L141.354 41.3812C146.304 44.2393 149.354 49.5214 149.354 55.2376V108.762C149.354 114.479 146.304 119.761 141.354 122.619L95 149.381C90.0496 152.239 83.9504 152.239 79 149.381L32.6462 122.619C27.6958 119.761 24.6462 114.479 24.6462 108.762V55.2376C24.6462 49.5214 27.6958 44.2393 32.6462 41.3812L79 14.6188Z" fill="url(#paint0_linear)"/>
<path d="M79.5 15.4848C84.141 12.8053 89.859 12.8053 94.5 15.4848L140.854 42.2472C145.495 44.9267 148.354 49.8786 148.354 55.2376V108.762C148.354 114.121 145.495 119.073 140.854 121.753L94.5 148.515C89.859 151.195 84.141 151.195 79.5 148.515L33.1462 121.753C28.5052 119.073 25.6462 114.121 25.6462 108.762V55.2376C25.6462 49.8786 28.5052 44.9267 33.1462 42.2472L79.5 15.4848Z" stroke="white" stroke-opacity="0.0782099" stroke-width="2"/>
</g>
<path d="M81 28.3301C84.4034 26.3652 88.5966 26.3652 92 28.3301L129.796 50.1519C133.2 52.1169 135.296 55.7483 135.296 59.6782V103.322C135.296 107.252 133.2 110.883 129.796 112.848L92 134.67C88.5966 136.635 84.4034 136.635 81 134.67L43.2035 112.848C39.8001 110.883 37.7035 107.252 37.7035 103.322V59.6782C37.7035 55.7483 39.8001 52.1169 43.2035 50.1519L81 28.3301Z" stroke="#6357F6" stroke-width="2"/>
<g filter="url(#filter1_d)">
<mask id="path-4-inside-1" fill="white">
<path fill-rule="evenodd" clip-rule="evenodd" d="M62.9617 64.259C64.666 64.827 66.0228 66.1838 66.5908 67.8882C66.7823 68.4628 67.3196 68.8499 67.9249 68.8499C68.5303 68.8499 69.0679 68.4628 69.259 67.8882C69.827 66.1838 71.1838 64.827 72.8882 64.259C73.4624 64.0679 73.8499 63.5303 73.8499 62.9249C73.8499 62.3196 73.4628 61.7823 72.8882 61.5908C71.1838 61.0228 69.827 59.666 69.259 57.9617C69.0679 57.3875 68.5303 57 67.9249 57C67.3196 57 66.7823 57.3875 66.5908 57.9617C66.0228 59.666 64.6664 61.0228 62.9617 61.5908C62.3875 61.7823 62 62.3196 62 62.9249C62 63.5303 62.3875 64.0679 62.9617 64.259ZM96.1287 65.7744C98.5149 66.5801 100.416 68.4796 101.223 70.8647C101.398 71.4419 101.935 71.8616 102.569 71.8616C103.201 71.8616 103.736 71.4448 103.913 70.8713C104.719 68.4851 106.618 66.5845 109.003 65.7766C109.58 65.6016 110 65.0654 110 64.4308C110 63.7991 109.583 63.2644 109.009 63.0872C106.623 62.2815 104.723 60.3827 103.915 57.9972C103.74 57.42 103.204 57 102.569 57C101.937 57 101.403 57.4171 101.225 57.9906C100.42 60.3768 98.5204 62.2775 96.1353 63.085C95.5581 63.26 95.1381 63.7965 95.1381 64.4308C95.1384 65.0629 95.5552 65.5972 96.1287 65.7744ZM74.7753 77.7261C74.6797 77.8444 74.5962 77.9645 74.5259 78.0872H67.3427L77.4742 67.9556C77.7379 67.6923 78.0961 67.5439 78.4692 67.5439H83.5006L74.8269 77.6635L74.783 77.7151L74.7753 77.7261ZM86 68.9502L93.8318 78.0872H78.1689L86 68.9502ZM97.2339 77.7385C97.3258 77.8528 97.4056 77.9692 97.4741 78.0872H104.657L94.5258 67.9556C94.2621 67.6923 93.9039 67.5439 93.5308 67.5439H88.4994L97.1815 77.6737L97.2339 77.7385ZM81.7183 96.509L67.309 80.8997H74.5138L81.7183 96.509ZM77.6123 80.8997L86 99.0751L94.3888 80.8997H77.6123ZM90.2817 96.509L97.4862 80.8997H104.691L90.2817 96.509ZM105.409 94.1118C105.977 95.8162 107.334 97.173 109.038 97.741C109.613 97.9321 110 98.4697 110 99.0751C110 99.6804 109.613 100.218 109.038 100.409C107.334 100.977 105.977 102.334 105.409 104.038C105.218 104.613 104.68 105 104.075 105C103.47 105 102.932 104.613 102.741 104.038C102.173 102.334 100.816 100.977 99.1118 100.409C98.5376 100.218 98.1501 99.6804 98.1501 99.0751C98.1501 98.4697 98.5376 97.9321 99.1118 97.741C100.816 97.173 102.173 95.8162 102.741 94.1118C102.932 93.5376 103.47 93.1501 104.075 93.1501C104.68 93.1501 105.218 93.5376 105.409 94.1118ZM70.777 91.1356C71.5845 93.5208 73.4851 95.4199 75.8713 96.2252C76.4448 96.4028 76.8616 96.9371 76.8616 97.5692C76.8616 98.2035 76.4419 98.74 75.8647 98.915C73.4796 99.7229 71.5801 101.623 70.7748 104.009C70.5972 104.583 70.0629 105 69.4308 105C68.7965 105 68.26 104.58 68.085 104.003C67.2775 101.618 65.3768 99.7185 62.9906 98.9128C62.4167 98.7356 62 98.2009 62 97.5692C62 96.9346 62.42 96.3984 62.9972 96.2234C65.3823 95.4155 67.2815 93.5149 68.0872 91.1287C68.2648 90.5552 68.7991 90.1381 69.4308 90.1381C70.0654 90.1381 70.6019 90.5581 70.777 91.1356Z"/>
</mask>
<path fill-rule="evenodd" clip-rule="evenodd" d="M62.9617 64.259C64.666 64.827 66.0228 66.1838 66.5908 67.8882C66.7823 68.4628 67.3196 68.8499 67.9249 68.8499C68.5303 68.8499 69.0679 68.4628 69.259 67.8882C69.827 66.1838 71.1838 64.827 72.8882 64.259C73.4624 64.0679 73.8499 63.5303 73.8499 62.9249C73.8499 62.3196 73.4628 61.7823 72.8882 61.5908C71.1838 61.0228 69.827 59.666 69.259 57.9617C69.0679 57.3875 68.5303 57 67.9249 57C67.3196 57 66.7823 57.3875 66.5908 57.9617C66.0228 59.666 64.6664 61.0228 62.9617 61.5908C62.3875 61.7823 62 62.3196 62 62.9249C62 63.5303 62.3875 64.0679 62.9617 64.259ZM96.1287 65.7744C98.5149 66.5801 100.416 68.4796 101.223 70.8647C101.398 71.4419 101.935 71.8616 102.569 71.8616C103.201 71.8616 103.736 71.4448 103.913 70.8713C104.719 68.4851 106.618 66.5845 109.003 65.7766C109.58 65.6016 110 65.0654 110 64.4308C110 63.7991 109.583 63.2644 109.009 63.0872C106.623 62.2815 104.723 60.3827 103.915 57.9972C103.74 57.42 103.204 57 102.569 57C101.937 57 101.403 57.4171 101.225 57.9906C100.42 60.3768 98.5204 62.2775 96.1353 63.085C95.5581 63.26 95.1381 63.7965 95.1381 64.4308C95.1384 65.0629 95.5552 65.5972 96.1287 65.7744ZM74.7753 77.7261C74.6797 77.8444 74.5962 77.9645 74.5259 78.0872H67.3427L77.4742 67.9556C77.7379 67.6923 78.0961 67.5439 78.4692 67.5439H83.5006L74.8269 77.6635L74.783 77.7151L74.7753 77.7261ZM86 68.9502L93.8318 78.0872H78.1689L86 68.9502ZM97.2339 77.7385C97.3258 77.8528 97.4056 77.9692 97.4741 78.0872H104.657L94.5258 67.9556C94.2621 67.6923 93.9039 67.5439 93.5308 67.5439H88.4994L97.1815 77.6737L97.2339 77.7385ZM81.7183 96.509L67.309 80.8997H74.5138L81.7183 96.509ZM77.6123 80.8997L86 99.0751L94.3888 80.8997H77.6123ZM90.2817 96.509L97.4862 80.8997H104.691L90.2817 96.509ZM105.409 94.1118C105.977 95.8162 107.334 97.173 109.038 97.741C109.613 97.9321 110 98.4697 110 99.0751C110 99.6804 109.613 100.218 109.038 100.409C107.334 100.977 105.977 102.334 105.409 104.038C105.218 104.613 104.68 105 104.075 105C103.47 105 102.932 104.613 102.741 104.038C102.173 102.334 100.816 100.977 99.1118 100.409C98.5376 100.218 98.1501 99.6804 98.1501 99.0751C98.1501 98.4697 98.5376 97.9321 99.1118 97.741C100.816 97.173 102.173 95.8162 102.741 94.1118C102.932 93.5376 103.47 93.1501 104.075 93.1501C104.68 93.1501 105.218 93.5376 105.409 94.1118ZM70.777 91.1356C71.5845 93.5208 73.4851 95.4199 75.8713 96.2252C76.4448 96.4028 76.8616 96.9371 76.8616 97.5692C76.8616 98.2035 76.4419 98.74 75.8647 98.915C73.4796 99.7229 71.5801 101.623 70.7748 104.009C70.5972 104.583 70.0629 105 69.4308 105C68.7965 105 68.26 104.58 68.085 104.003C67.2775 101.618 65.3768 99.7185 62.9906 98.9128C62.4167 98.7356 62 98.2009 62 97.5692C62 96.9346 62.42 96.3984 62.9972 96.2234C65.3823 95.4155 67.2815 93.5149 68.0872 91.1287C68.2648 90.5552 68.7991 90.1381 69.4308 90.1381C70.0654 90.1381 70.6019 90.5581 70.777 91.1356Z" fill="url(#paint1_linear)"/>
<path fill-rule="evenodd" clip-rule="evenodd" d="M62.9617 64.259C64.666 64.827 66.0228 66.1838 66.5908 67.8882C66.7823 68.4628 67.3196 68.8499 67.9249 68.8499C68.5303 68.8499 69.0679 68.4628 69.259 67.8882C69.827 66.1838 71.1838 64.827 72.8882 64.259C73.4624 64.0679 73.8499 63.5303 73.8499 62.9249C73.8499 62.3196 73.4628 61.7823 72.8882 61.5908C71.1838 61.0228 69.827 59.666 69.259 57.9617C69.0679 57.3875 68.5303 57 67.9249 57C67.3196 57 66.7823 57.3875 66.5908 57.9617C66.0228 59.666 64.6664 61.0228 62.9617 61.5908C62.3875 61.7823 62 62.3196 62 62.9249C62 63.5303 62.3875 64.0679 62.9617 64.259ZM96.1287 65.7744C98.5149 66.5801 100.416 68.4796 101.223 70.8647C101.398 71.4419 101.935 71.8616 102.569 71.8616C103.201 71.8616 103.736 71.4448 103.913 70.8713C104.719 68.4851 106.618 66.5845 109.003 65.7766C109.58 65.6016 110 65.0654 110 64.4308C110 63.7991 109.583 63.2644 109.009 63.0872C106.623 62.2815 104.723 60.3827 103.915 57.9972C103.74 57.42 103.204 57 102.569 57C101.937 57 101.403 57.4171 101.225 57.9906C100.42 60.3768 98.5204 62.2775 96.1353 63.085C95.5581 63.26 95.1381 63.7965 95.1381 64.4308C95.1384 65.0629 95.5552 65.5972 96.1287 65.7744ZM74.7753 77.7261C74.6797 77.8444 74.5962 77.9645 74.5259 78.0872H67.3427L77.4742 67.9556C77.7379 67.6923 78.0961 67.5439 78.4692 67.5439H83.5006L74.8269 77.6635L74.783 77.7151L74.7753 77.7261ZM86 68.9502L93.8318 78.0872H78.1689L86 68.9502ZM97.2339 77.7385C97.3258 77.8528 97.4056 77.9692 97.4741 78.0872H104.657L94.5258 67.9556C94.2621 67.6923 93.9039 67.5439 93.5308 67.5439H88.4994L97.1815 77.6737L97.2339 77.7385ZM81.7183 96.509L67.309 80.8997H74.5138L81.7183 96.509ZM77.6123 80.8997L86 99.0751L94.3888 80.8997H77.6123ZM90.2817 96.509L97.4862 80.8997H104.691L90.2817 96.509ZM105.409 94.1118C105.977 95.8162 107.334 97.173 109.038 97.741C109.613 97.9321 110 98.4697 110 99.0751C110 99.6804 109.613 100.218 109.038 100.409C107.334 100.977 105.977 102.334 105.409 104.038C105.218 104.613 104.68 105 104.075 105C103.47 105 102.932 104.613 102.741 104.038C102.173 102.334 100.816 100.977 99.1118 100.409C98.5376 100.218 98.1501 99.6804 98.1501 99.0751C98.1501 98.4697 98.5376 97.9321 99.1118 97.741C100.816 97.173 102.173 95.8162 102.741 94.1118C102.932 93.5376 103.47 93.1501 104.075 93.1501C104.68 93.1501 105.218 93.5376 105.409 94.1118ZM70.777 91.1356C71.5845 93.5208 73.4851 95.4199 75.8713 96.2252C76.4448 96.4028 76.8616 96.9371 76.8616 97.5692C76.8616 98.2035 76.4419 98.74 75.8647 98.915C73.4796 99.7229 71.5801 101.623 70.7748 104.009C70.5972 104.583 70.0629 105 69.4308 105C68.7965 105 68.26 104.58 68.085 104.003C67.2775 101.618 65.3768 99.7185 62.9906 98.9128C62.4167 98.7356 62 98.2009 62 97.5692C62 96.9346 62.42 96.3984 62.9972 96.2234C65.3823 95.4155 67.2815 93.5149 68.0872 91.1287C68.2648 90.5552 68.7991 90.1381 69.4308 90.1381C70.0654 90.1381 70.6019 90.5581 70.777 91.1356Z" fill="url(#paint2_linear)"/>
<path d="M66.5908 67.8882L65.6421 68.2044L65.6421 68.2044L66.5908 67.8882ZM62.9617 64.259L63.2778 63.3103L63.2775 63.3102L62.9617 64.259ZM69.259 67.8882L68.3103 67.572L68.3102 67.5725L69.259 67.8882ZM72.8882 64.259L72.5723 63.3102L72.572 63.3103L72.8882 64.259ZM72.8882 61.5908L73.2044 60.6421L73.2044 60.6421L72.8882 61.5908ZM69.259 57.9617L68.3102 58.2775L68.3103 58.2778L69.259 57.9617ZM66.5908 57.9617L65.6422 57.6453L65.6421 57.6455L66.5908 57.9617ZM62.9617 61.5908L62.6456 60.6421L62.6453 60.6422L62.9617 61.5908ZM101.223 70.8647L102.18 70.5745L102.176 70.5591L102.171 70.5439L101.223 70.8647ZM96.1287 65.7744L96.4486 64.827L96.4363 64.8228L96.4239 64.819L96.1287 65.7744ZM103.913 70.8713L102.965 70.5514L102.961 70.5637L102.957 70.5761L103.913 70.8713ZM109.003 65.7766L108.713 64.8197L108.698 64.8243L108.682 64.8295L109.003 65.7766ZM109.009 63.0872L108.69 64.0346L108.702 64.0387L108.714 64.0426L109.009 63.0872ZM103.915 57.9972L102.958 58.2874L102.963 58.3028L102.968 58.318L103.915 57.9972ZM101.225 57.9906L102.173 58.3105L102.177 58.2985L102.18 58.2864L101.225 57.9906ZM96.1353 63.085L96.4255 64.0419L96.4408 64.0373L96.4559 64.0322L96.1353 63.085ZM95.1381 64.4308H94.1381V64.4314L95.1381 64.4308ZM74.5259 78.0872V79.0872H75.1053L75.3935 78.5844L74.5259 78.0872ZM74.7753 77.7261L75.5531 78.3546L75.5747 78.3278L75.5945 78.2995L74.7753 77.7261ZM67.3427 78.0872L66.6355 77.3801L64.9284 79.0872H67.3427V78.0872ZM77.4742 67.9556L76.7676 67.248L76.7671 67.2485L77.4742 67.9556ZM83.5006 67.5439L84.2599 68.1947L85.6748 66.5439H83.5006V67.5439ZM74.8269 77.6635L74.0676 77.0127L74.0654 77.0153L74.8269 77.6635ZM74.783 77.7151L74.0214 77.067L73.9908 77.1029L73.9637 77.1416L74.783 77.7151ZM93.8318 78.0872V79.0872H96.006L94.591 77.4364L93.8318 78.0872ZM86 68.9502L86.7593 68.2994L86 67.4136L85.2407 68.2994L86 68.9502ZM78.1689 78.0872L77.4097 77.4364L75.9948 79.0872H78.1689V78.0872ZM97.4741 78.0872L96.6094 78.5894L96.8985 79.0872H97.4741V78.0872ZM97.2339 77.7385L98.0131 77.1117L98.0117 77.1101L97.2339 77.7385ZM104.657 78.0872V79.0872H107.072L105.364 77.3801L104.657 78.0872ZM94.5258 67.9556L95.2329 67.2485L95.2324 67.248L94.5258 67.9556ZM88.4994 67.5439V66.5439H86.3253L87.7401 68.1947L88.4994 67.5439ZM97.1815 77.6737L97.9594 77.0453L97.9502 77.034L97.9408 77.0229L97.1815 77.6737ZM67.309 80.8997V79.8997H65.0249L66.5742 81.578L67.309 80.8997ZM81.7183 96.509L80.9835 97.1873L82.6262 96.09L81.7183 96.509ZM74.5138 80.8997L75.4218 80.4806L75.1536 79.8997H74.5138V80.8997ZM86 99.0751L85.092 99.4941L85.9999 101.461L86.908 99.4941L86 99.0751ZM77.6123 80.8997V79.8997H76.0495L76.7043 81.3187L77.6123 80.8997ZM94.3888 80.8997L95.2967 81.3187L95.9517 79.8997H94.3888V80.8997ZM97.4862 80.8997V79.8997H96.8464L96.5783 80.4806L97.4862 80.8997ZM90.2817 96.509L89.3738 96.09L91.0165 97.1873L90.2817 96.509ZM104.691 80.8997L105.426 81.578L106.975 79.8997H104.691V80.8997ZM109.038 97.741L108.722 98.6897L108.722 98.6898L109.038 97.741ZM105.409 94.1118L106.358 93.7957L106.358 93.7954L105.409 94.1118ZM109.038 100.409L109.354 101.358L109.355 101.358L109.038 100.409ZM105.409 104.038L106.358 104.355L106.358 104.354L105.409 104.038ZM102.741 104.038L103.69 103.722L103.69 103.722L102.741 104.038ZM99.1118 100.409L98.7954 101.358L98.7957 101.358L99.1118 100.409ZM99.1118 97.741L99.4277 98.6898L99.428 98.6897L99.1118 97.741ZM102.741 94.1118L103.69 94.428L103.69 94.4277L102.741 94.1118ZM75.8713 96.2252L75.5516 97.1727L75.5635 97.1767L75.5755 97.1805L75.8713 96.2252ZM70.777 91.1356L69.82 91.4257L69.8246 91.4411L69.8298 91.4563L70.777 91.1356ZM75.8647 98.915L75.5745 97.9581L75.5591 97.9627L75.5439 97.9679L75.8647 98.915ZM70.7748 104.009L69.8273 103.69L69.8233 103.702L69.8195 103.714L70.7748 104.009ZM68.085 104.003L69.0419 103.713L69.0373 103.697L69.0322 103.682L68.085 104.003ZM62.9906 98.9128L63.3105 97.9654L63.2982 97.9612L63.2857 97.9574L62.9906 98.9128ZM62.9972 96.2234L63.2874 97.1803L63.3028 97.1757L63.318 97.1705L62.9972 96.2234ZM68.0872 91.1287L69.0346 91.4486L69.0387 91.4366L69.0424 91.4245L68.0872 91.1287ZM67.5395 67.572C66.872 65.569 65.2808 63.9779 63.2778 63.3103L62.6455 65.2077C64.0512 65.6762 65.1737 66.7987 65.6421 68.2044L67.5395 67.572ZM67.9249 67.8499C67.75 67.8499 67.5949 67.7382 67.5395 67.572L65.6421 68.2044C65.9698 69.1874 66.8892 69.8499 67.9249 69.8499V67.8499ZM68.3102 67.5725C68.2552 67.7379 68.1003 67.8499 67.9249 67.8499V69.8499C68.9603 69.8499 69.8806 69.1877 70.2079 68.2039L68.3102 67.5725ZM72.572 63.3103C70.569 63.9779 68.9779 65.569 68.3103 67.572L70.2077 68.2044C70.6762 66.7987 71.7987 65.6762 73.2044 65.2077L72.572 63.3103ZM72.8499 62.9249C72.8499 63.1 72.7378 63.2552 72.5723 63.3102L73.204 65.2078C74.1871 64.8806 74.8499 63.9606 74.8499 62.9249H72.8499ZM72.572 62.5395C72.7382 62.5949 72.8499 62.75 72.8499 62.9249H74.8499C74.8499 61.8892 74.1874 60.9698 73.2044 60.6421L72.572 62.5395ZM68.3103 58.2778C68.9779 60.2808 70.569 61.872 72.572 62.5395L73.2044 60.6421C71.7987 60.1737 70.6762 59.0512 70.2077 57.6455L68.3103 58.2778ZM67.9249 58C68.1 58 68.2552 58.1121 68.3102 58.2775L70.2078 57.6458C69.8806 56.6628 68.9606 56 67.9249 56V58ZM67.5394 58.2781C67.5949 58.1118 67.7503 58 67.9249 58V56C66.8889 56 65.9698 56.6631 65.6422 57.6453L67.5394 58.2781ZM63.2778 62.5395C65.2813 61.872 66.872 60.2808 67.5395 58.2778L65.6421 57.6455C65.1736 59.0513 64.0515 60.1737 62.6456 60.6421L63.2778 62.5395ZM63 62.9249C63 62.7503 63.1118 62.5949 63.2781 62.5394L62.6453 60.6422C61.6631 60.9698 61 61.8889 61 62.9249H63ZM63.2775 63.3102C63.1121 63.2552 63 63.1 63 62.9249H61C61 63.9606 61.6628 64.8806 62.6458 65.2078L63.2775 63.3102ZM102.171 70.5439C101.263 67.8637 99.1302 65.7324 96.4486 64.827L95.8088 66.7219C97.8996 67.4278 99.5683 69.0955 100.276 71.1856L102.171 70.5439ZM102.569 70.8616C102.387 70.8616 102.231 70.7414 102.18 70.5745L100.266 71.155C100.566 72.1424 101.482 72.8616 102.569 72.8616V70.8616ZM102.957 70.5761C102.906 70.7423 102.75 70.8616 102.569 70.8616V72.8616C103.652 72.8616 104.565 72.1473 104.868 71.1666L102.957 70.5761ZM108.682 64.8295C106.002 65.7373 103.871 67.8698 102.965 70.5514L104.86 71.1912C105.566 69.1004 107.234 67.4317 109.324 66.7238L108.682 64.8295ZM109 64.4308C109 64.613 108.88 64.769 108.713 64.8197L109.294 66.7335C110.28 66.4341 111 65.5179 111 64.4308H109ZM108.714 64.0426C108.881 64.0941 109 64.2502 109 64.4308H111C111 63.3479 110.285 62.4347 109.305 62.1317L108.714 64.0426ZM102.968 58.318C103.876 60.9986 106.008 63.1292 108.69 64.0346L109.329 62.1397C107.238 61.4338 105.57 59.7667 104.862 57.6764L102.968 58.318ZM102.569 58C102.751 58 102.907 58.1202 102.958 58.2874L104.872 57.7069C104.573 56.7199 103.656 56 102.569 56V58ZM102.18 58.2864C102.232 58.119 102.389 58 102.569 58V56C101.486 56 100.573 56.7152 100.27 57.6948L102.18 58.2864ZM96.4559 64.0322C99.1364 63.1247 101.267 60.9921 102.173 58.3105L100.278 57.6707C99.5718 59.7616 97.9044 61.4302 95.8146 62.1378L96.4559 64.0322ZM96.1381 64.4308C96.1381 64.2489 96.2584 64.0926 96.4255 64.0419L95.845 62.128C94.8578 62.4274 94.1381 63.3441 94.1381 64.4308H96.1381ZM96.4239 64.819C96.2576 64.7676 96.1382 64.6119 96.1381 64.4302L94.1381 64.4314C94.1387 65.5138 94.8527 66.4267 95.8334 66.7298L96.4239 64.819ZM75.3935 78.5844C75.4341 78.5136 75.4864 78.4371 75.5531 78.3546L73.9975 77.0976C73.873 77.2516 73.7583 77.4154 73.6583 77.5899L75.3935 78.5844ZM67.3427 79.0872H74.5259V77.0872H67.3427V79.0872ZM76.7671 67.2485L66.6355 77.3801L68.0498 78.7943L78.1814 68.6627L76.7671 67.2485ZM78.4692 66.5439C77.8311 66.5439 77.2188 66.7974 76.7676 67.248L78.1809 68.6632C78.257 68.5871 78.361 68.5439 78.4692 68.5439V66.5439ZM83.5006 66.5439H78.4692V68.5439H83.5006V66.5439ZM75.5862 78.3142L84.2599 68.1947L82.7413 66.8932L74.0676 77.0127L75.5862 78.3142ZM75.5445 78.3632L75.5884 78.3116L74.0654 77.0153L74.0214 77.067L75.5445 78.3632ZM75.5945 78.2995L75.6022 78.2885L73.9637 77.1416L73.956 77.1526L75.5945 78.2995ZM94.591 77.4364L86.7593 68.2994L85.2407 69.601L93.0725 78.738L94.591 77.4364ZM78.1689 79.0872H93.8318V77.0872H78.1689V79.0872ZM85.2407 68.2994L77.4097 77.4364L78.9282 78.7379L86.7593 69.601L85.2407 68.2994ZM98.3389 77.585C98.2444 77.4223 98.1358 77.2643 98.013 77.1117L96.4547 78.3654C96.5158 78.4413 96.5669 78.5162 96.6094 78.5894L98.3389 77.585ZM104.657 77.0872H97.4741V79.0872H104.657V77.0872ZM93.8186 68.6627L103.95 78.7943L105.364 77.3801L95.2329 67.2485L93.8186 68.6627ZM93.5308 68.5439C93.639 68.5439 93.743 68.5871 93.8191 68.6632L95.2324 67.248C94.7812 66.7974 94.1689 66.5439 93.5308 66.5439V68.5439ZM88.4994 68.5439H93.5308V66.5439H88.4994V68.5439ZM97.9408 77.0229L89.2587 66.8932L87.7401 68.1947L96.4222 78.3245L97.9408 77.0229ZM98.0117 77.1101L97.9594 77.0453L96.4037 78.3021L96.456 78.367L98.0117 77.1101ZM66.5742 81.578L80.9835 97.1873L82.4531 95.8307L68.0437 80.2214L66.5742 81.578ZM74.5138 79.8997H67.309V81.8997H74.5138V79.8997ZM82.6262 96.09L75.4218 80.4806L73.6058 81.3187L80.8103 96.9281L82.6262 96.09ZM86.908 98.6561L78.5203 80.4806L76.7043 81.3187L85.092 99.4941L86.908 98.6561ZM93.4808 80.4806L85.092 98.656L86.908 99.4941L95.2967 81.3187L93.4808 80.4806ZM77.6123 81.8997H94.3888V79.8997H77.6123V81.8997ZM96.5783 80.4806L89.3738 96.09L91.1897 96.9281L98.3942 81.3187L96.5783 80.4806ZM104.691 79.8997H97.4862V81.8997H104.691V79.8997ZM91.0165 97.1873L105.426 81.578L103.956 80.2214L89.5469 95.8307L91.0165 97.1873ZM109.354 96.7922C107.949 96.3238 106.826 95.2014 106.358 93.7957L104.46 94.428C105.128 96.4309 106.719 98.0221 108.722 98.6897L109.354 96.7922ZM111 99.0751C111 98.0394 110.337 97.1194 109.354 96.7922L108.722 98.6898C108.888 98.7448 109 98.9 109 99.0751H111ZM109.355 101.358C110.337 101.03 111 100.111 111 99.0751H109C109 99.2497 108.888 99.4051 108.722 99.4606L109.355 101.358ZM106.358 104.354C106.826 102.949 107.949 101.826 109.354 101.358L108.722 99.4605C106.719 100.128 105.128 101.719 104.46 103.722L106.358 104.354ZM104.075 106C105.111 106 106.03 105.337 106.358 104.355L104.461 103.722C104.405 103.888 104.25 104 104.075 104V106ZM101.792 104.354C102.119 105.337 103.039 106 104.075 106V104C103.9 104 103.745 103.888 103.69 103.722L101.792 104.354ZM98.7957 101.358C100.201 101.826 101.324 102.949 101.792 104.354L103.69 103.722C103.022 101.719 101.431 100.128 99.428 99.4605L98.7957 101.358ZM97.1501 99.0751C97.1501 100.111 97.8133 101.03 98.7954 101.358L99.4282 99.4606C99.2619 99.4051 99.1501 99.2497 99.1501 99.0751H97.1501ZM98.796 96.7922C97.8129 97.1194 97.1501 98.0394 97.1501 99.0751H99.1501C99.1501 98.9 99.2622 98.7448 99.4277 98.6898L98.796 96.7922ZM101.792 93.7957C101.324 95.2013 100.201 96.3238 98.7957 96.7923L99.428 98.6897C101.431 98.0221 103.022 96.431 103.69 94.428L101.792 93.7957ZM104.075 92.1501C103.039 92.1501 102.119 92.8129 101.792 93.796L103.69 94.4277C103.745 94.2622 103.9 94.1501 104.075 94.1501V92.1501ZM106.358 93.7954C106.03 92.8133 105.111 92.1501 104.075 92.1501V94.1501C104.25 94.1501 104.405 94.2619 104.461 94.4282L106.358 93.7954ZM76.1911 95.2777C74.1003 94.5721 72.4317 92.9048 71.7242 90.8149L69.8298 91.4563C70.7373 94.1367 72.8699 96.2677 75.5516 97.1727L76.1911 95.2777ZM77.8616 97.5692C77.8616 96.4862 77.1472 95.5735 76.1672 95.27L75.5755 97.1805C75.7425 97.2322 75.8616 97.3881 75.8616 97.5692H77.8616ZM76.155 99.872C77.1426 99.5725 77.8616 98.6555 77.8616 97.5692H75.8616C75.8616 97.7515 75.7412 97.9075 75.5745 97.9581L76.155 99.872ZM71.7223 104.329C72.4278 102.239 74.0954 100.57 76.1856 99.8622L75.5439 97.9679C72.8638 98.8757 70.7324 101.008 69.8273 103.69L71.7223 104.329ZM69.4308 106C70.5143 106 71.4266 105.285 71.73 104.305L69.8195 103.714C69.7677 103.881 69.6115 104 69.4308 104V106ZM67.128 104.293C67.4274 105.28 68.3441 106 69.4308 106V104C69.2489 104 69.0926 103.88 69.0419 103.713L67.128 104.293ZM62.6707 99.8603C64.7616 100.566 66.4302 102.234 67.1378 104.323L69.0322 103.682C68.1247 101.002 65.9921 98.8708 63.3105 97.9654L62.6707 99.8603ZM61 97.5692C61 98.6518 61.7144 99.5653 62.6955 99.8683L63.2857 97.9574C63.1191 97.9059 63 97.7501 63 97.5692H61ZM62.7069 95.2664C61.7199 95.5658 61 96.482 61 97.5692H63C63 97.3871 63.1202 97.2311 63.2874 97.1803L62.7069 95.2664ZM67.1397 90.8088C66.4338 92.8996 64.7663 94.5684 62.6764 95.2762L63.318 97.1705C65.9983 96.2627 68.1292 94.1302 69.0346 91.4486L67.1397 90.8088ZM69.4308 89.1381C68.3475 89.1381 67.4353 89.8534 67.1319 90.8328L69.0424 91.4245C69.0943 91.257 69.2506 91.1381 69.4308 91.1381V89.1381ZM71.734 90.8455C71.4346 89.8578 70.5178 89.1381 69.4308 89.1381V91.1381C69.6131 91.1381 69.7693 91.2584 69.82 91.4257L71.734 90.8455Z" fill="white" fill-opacity="0.0782099" mask="url(#path-4-inside-1)"/>
</g>
<defs>
<filter id="filter0_d" x="0.646179" y="0.475098" width="172.708" height="187.05" filterUnits="userSpaceOnUse" color-interpolation-filters="sRGB">
<feFlood flood-opacity="0" result="BackgroundImageFix"/>
<feColorMatrix in="SourceAlpha" type="matrix" values="0 0 0 0 0 0 0 0 0 0 0 0 0 0 0 0 0 0 127 0"/>
<feOffset dy="12"/>
<feGaussianBlur stdDeviation="12"/>
<feColorMatrix type="matrix" values="0 0 0 0 0 0 0 0 0 0.0037911 0 0 0 0 0.170599 0 0 0 0.157184 0"/>
<feBlend mode="normal" in2="BackgroundImageFix" result="effect1_dropShadow"/>
<feBlend mode="normal" in="SourceGraphic" in2="effect1_dropShadow" result="shape"/>
</filter>
<filter id="filter1_d" x="54" y="53" width="64" height="64" filterUnits="userSpaceOnUse" color-interpolation-filters="sRGB">
<feFlood flood-opacity="0" result="BackgroundImageFix"/>
<feColorMatrix in="SourceAlpha" type="matrix" values="0 0 0 0 0 0 0 0 0 0 0 0 0 0 0 0 0 0 127 0"/>
<feOffset dy="4"/>
<feGaussianBlur stdDeviation="4"/>
<feColorMatrix type="matrix" values="0 0 0 0 0 0 0 0 0 0.0037911 0 0 0 0 0.170599 0 0 0 0.157184 0"/>
<feBlend mode="normal" in2="BackgroundImageFix" result="effect1_dropShadow"/>
<feBlend mode="normal" in="SourceGraphic" in2="effect1_dropShadow" result="shape"/>
</filter>
<linearGradient id="paint0_linear" x1="15" y1="10" x2="15" y2="154" gradientUnits="userSpaceOnUse">
<stop stop-color="#4D4F95"/>
<stop offset="1" stop-color="#2B2D66"/>
</linearGradient>
<linearGradient id="paint1_linear" x1="62" y1="57" x2="62" y2="105" gradientUnits="userSpaceOnUse">
<stop stop-color="#4D4F95"/>
<stop offset="1" stop-color="#2B2D66"/>
</linearGradient>
<linearGradient id="paint2_linear" x1="110" y1="57" x2="62" y2="57" gradientUnits="userSpaceOnUse">
<stop stop-color="#6357F6"/>
<stop offset="1" stop-color="#E6606C"/>
</linearGradient>
</defs>
</svg>
