<svg width="47" height="13" viewBox="0 0 47 13" fill="none" xmlns="http://www.w3.org/2000/svg">
<path d="M3.95699 0.186C4.77833 0.186 5.43633 0.438 5.93099 0.942C6.43499 1.446 6.68699 2.10867 6.68699 2.93C6.68699 3.742 6.43033 4.39533 5.91699 4.89C5.41299 5.38467 4.74566 5.632 3.91499 5.632H1.18499C1.14766 5.632 1.12899 5.65067 1.12899 5.688V9.86C1.12899 9.95333 1.08233 10 0.988992 10H0.274992C0.181659 10 0.134992 9.95333 0.134992 9.86V0.325999C0.134992 0.232666 0.181659 0.186 0.274992 0.186H3.95699ZM3.84499 4.806C4.39566 4.806 4.84366 4.638 5.18899 4.302C5.53433 3.95667 5.70699 3.504 5.70699 2.944C5.70699 2.37467 5.53433 1.91733 5.18899 1.572C4.84366 1.22667 4.39566 1.054 3.84499 1.054H1.18499C1.14766 1.054 1.12899 1.07267 1.12899 1.11V4.75C1.12899 4.78733 1.14766 4.806 1.18499 4.806H3.84499ZM13.5081 5.268C13.5454 5.52933 13.5641 5.856 13.5641 6.248V6.696C13.5641 6.78933 13.5174 6.836 13.4241 6.836H8.90205C8.86472 6.836 8.84605 6.85467 8.84605 6.892C8.86472 7.40533 8.89272 7.73667 8.93005 7.886C9.03272 8.306 9.25205 8.63733 9.58805 8.88C9.92405 9.12267 10.3534 9.244 10.8761 9.244C11.2681 9.244 11.6134 9.15533 11.9121 8.978C12.2107 8.80067 12.4441 8.54867 12.6121 8.222C12.6681 8.138 12.7334 8.11933 12.8081 8.166L13.3541 8.488C13.4287 8.53467 13.4474 8.6 13.4101 8.684C13.1767 9.132 12.8267 9.48667 12.3601 9.748C11.8934 10 11.3567 10.126 10.7501 10.126C10.0874 10.1167 9.53205 9.958 9.08405 9.65C8.63605 9.342 8.31405 8.91267 8.11805 8.362C7.95005 7.914 7.86605 7.27 7.86605 6.43C7.86605 6.038 7.87072 5.72067 7.88005 5.478C7.89872 5.226 7.93605 5.002 7.99205 4.806C8.15072 4.19933 8.46805 3.714 8.94405 3.35C9.42939 2.986 10.0127 2.804 10.6941 2.804C11.5434 2.804 12.1967 3.01867 12.6541 3.448C13.1114 3.87733 13.3961 4.484 13.5081 5.268ZM10.6941 3.672C10.2367 3.672 9.85405 3.79333 9.54605 4.036C9.24739 4.26933 9.05139 4.58667 8.95805 4.988C8.90205 5.184 8.86472 5.50133 8.84605 5.94C8.84605 5.97733 8.86472 5.996 8.90205 5.996H12.5281C12.5654 5.996 12.5841 5.97733 12.5841 5.94C12.5654 5.52 12.5374 5.22133 12.5001 5.044C12.3974 4.624 12.1874 4.29267 11.8701 4.05C11.5621 3.798 11.1701 3.672 10.6941 3.672ZM18.2429 10.112C17.5709 10.112 16.9922 9.93933 16.5069 9.594C16.0216 9.24867 15.6856 8.77267 15.4989 8.166C15.3682 7.73667 15.3029 7.16267 15.3029 6.444C15.3029 5.72533 15.3682 5.156 15.4989 4.736C15.6762 4.13867 16.0076 3.66733 16.4929 3.322C16.9782 2.97667 17.5662 2.804 18.2569 2.804C18.9196 2.804 19.4889 2.97667 19.9649 3.322C20.4502 3.66733 20.7816 4.134 20.9589 4.722C21.0896 5.12333 21.1549 5.69733 21.1549 6.444C21.1549 7.2 21.0896 7.774 20.9589 8.166C20.7816 8.77267 20.4502 9.24867 19.9649 9.594C19.4889 9.93933 18.9149 10.112 18.2429 10.112ZM18.2429 9.244C18.6909 9.244 19.0736 9.12267 19.3909 8.88C19.7082 8.628 19.9229 8.292 20.0349 7.872C20.1189 7.536 20.1609 7.06467 20.1609 6.458C20.1609 5.842 20.1236 5.37067 20.0489 5.044C19.9369 4.624 19.7176 4.29267 19.3909 4.05C19.0736 3.798 18.6862 3.672 18.2289 3.672C17.7716 3.672 17.3842 3.798 17.0669 4.05C16.7496 4.29267 16.5349 4.624 16.4229 5.044C16.3482 5.37067 16.3109 5.842 16.3109 6.458C16.3109 7.074 16.3482 7.54533 16.4229 7.872C16.5256 8.292 16.7356 8.628 17.0529 8.88C17.3796 9.12267 17.7762 9.244 18.2429 9.244ZM28.6718 4.68C28.8118 5.128 28.8818 5.72067 28.8818 6.458C28.8818 7.20467 28.8211 7.78333 28.6998 8.194C28.5318 8.79133 28.2238 9.26267 27.7758 9.608C27.3371 9.944 26.7818 10.112 26.1098 10.112C25.7458 10.112 25.4098 10.042 25.1018 9.902C24.7938 9.75267 24.5371 9.54267 24.3318 9.272C24.3131 9.25333 24.2945 9.24867 24.2758 9.258C24.2665 9.258 24.2618 9.26733 24.2618 9.286V12.576C24.2618 12.6693 24.2151 12.716 24.1218 12.716H23.4078C23.3145 12.716 23.2678 12.6693 23.2678 12.576V3.056C23.2678 2.96267 23.3145 2.916 23.4078 2.916H24.1218C24.2151 2.916 24.2618 2.96267 24.2618 3.056V3.644C24.2618 3.66267 24.2665 3.67667 24.2758 3.686C24.2945 3.686 24.3131 3.67667 24.3318 3.658C24.5371 3.38733 24.7891 3.17733 25.0878 3.028C25.3958 2.87867 25.7365 2.804 26.1098 2.804C26.7631 2.804 27.3091 2.972 27.7478 3.308C28.1958 3.644 28.5038 4.10133 28.6718 4.68ZM27.5658 8.222C27.6685 8.01667 27.7431 7.788 27.7898 7.536C27.8458 7.27467 27.8738 6.91533 27.8738 6.458C27.8738 6.01933 27.8551 5.67867 27.8178 5.436C27.7805 5.184 27.7151 4.96 27.6218 4.764C27.5098 4.428 27.3091 4.162 27.0198 3.966C26.7398 3.77 26.4038 3.672 26.0118 3.672C25.6385 3.672 25.3258 3.77 25.0738 3.966C24.8218 4.162 24.6351 4.42333 24.5138 4.75C24.4298 4.93667 24.3691 5.156 24.3318 5.408C24.2945 5.66 24.2758 6.01 24.2758 6.458C24.2758 6.906 24.2945 7.26067 24.3318 7.522C24.3691 7.774 24.4345 7.998 24.5278 8.194C24.6398 8.51133 24.8218 8.768 25.0738 8.964C25.3351 9.15067 25.6431 9.244 25.9978 9.244C26.3711 9.244 26.6931 9.15067 26.9638 8.964C27.2438 8.77733 27.4445 8.53 27.5658 8.222ZM31.0344 10C30.9411 10 30.8944 9.95333 30.8944 9.86V0.339999C30.8944 0.246666 30.9411 0.199999 31.0344 0.199999H31.7484C31.8417 0.199999 31.8884 0.246666 31.8884 0.339999V9.86C31.8884 9.95333 31.8417 10 31.7484 10H31.0344ZM39.553 5.268C39.5903 5.52933 39.609 5.856 39.609 6.248V6.696C39.609 6.78933 39.5623 6.836 39.469 6.836H34.947C34.9096 6.836 34.891 6.85467 34.891 6.892C34.9096 7.40533 34.9376 7.73667 34.975 7.886C35.0776 8.306 35.297 8.63733 35.633 8.88C35.969 9.12267 36.3983 9.244 36.921 9.244C37.313 9.244 37.6583 9.15533 37.957 8.978C38.2556 8.80067 38.489 8.54867 38.657 8.222C38.713 8.138 38.7783 8.11933 38.853 8.166L39.399 8.488C39.4736 8.53467 39.4923 8.6 39.455 8.684C39.2216 9.132 38.8716 9.48667 38.405 9.748C37.9383 10 37.4016 10.126 36.795 10.126C36.1323 10.1167 35.577 9.958 35.129 9.65C34.681 9.342 34.359 8.91267 34.163 8.362C33.995 7.914 33.911 7.27 33.911 6.43C33.911 6.038 33.9156 5.72067 33.925 5.478C33.9436 5.226 33.981 5.002 34.037 4.806C34.1956 4.19933 34.513 3.714 34.989 3.35C35.4743 2.986 36.0576 2.804 36.739 2.804C37.5883 2.804 38.2416 3.01867 38.699 3.448C39.1563 3.87733 39.441 4.484 39.553 5.268ZM36.739 3.672C36.2816 3.672 35.899 3.79333 35.591 4.036C35.2923 4.26933 35.0963 4.58667 35.003 4.988C34.947 5.184 34.9096 5.50133 34.891 5.94C34.891 5.97733 34.9096 5.996 34.947 5.996H38.573C38.6103 5.996 38.629 5.97733 38.629 5.94C38.6103 5.52 38.5823 5.22133 38.545 5.044C38.4423 4.624 38.2323 4.29267 37.915 4.05C37.607 3.798 37.215 3.672 36.739 3.672ZM43.7868 10.07C43.2641 10.07 42.7974 9.986 42.3868 9.818C41.9854 9.65 41.6728 9.426 41.4488 9.146C41.2341 8.866 41.1268 8.55333 41.1268 8.208V8.04C41.1268 7.94667 41.1734 7.9 41.2668 7.9H41.9388C42.0321 7.9 42.0788 7.94667 42.0788 8.04V8.152C42.0788 8.46 42.2374 8.73067 42.5548 8.964C42.8814 9.188 43.2874 9.3 43.7728 9.3C44.2581 9.3 44.6501 9.19267 44.9488 8.978C45.2474 8.754 45.3968 8.474 45.3968 8.138C45.3968 7.90467 45.3174 7.71333 45.1588 7.564C45.0094 7.41467 44.8274 7.298 44.6128 7.214C44.4074 7.13 44.0854 7.02267 43.6468 6.892C43.1241 6.74267 42.6948 6.59333 42.3588 6.444C42.0228 6.29467 41.7381 6.08933 41.5048 5.828C41.2808 5.55733 41.1688 5.21667 41.1688 4.806C41.1688 4.20867 41.4021 3.73267 41.8688 3.378C42.3354 3.02333 42.9514 2.846 43.7168 2.846C44.2301 2.846 44.6828 2.93 45.0748 3.098C45.4761 3.266 45.7841 3.49933 45.9988 3.798C46.2134 4.08733 46.3208 4.414 46.3208 4.778V4.82C46.3208 4.91333 46.2741 4.96 46.1808 4.96H45.5228C45.4294 4.96 45.3828 4.91333 45.3828 4.82V4.778C45.3828 4.46067 45.2288 4.19467 44.9208 3.98C44.6221 3.76533 44.2161 3.658 43.7028 3.658C43.2268 3.658 42.8441 3.756 42.5548 3.952C42.2654 4.13867 42.1208 4.4 42.1208 4.736C42.1208 5.05333 42.2608 5.296 42.5408 5.464C42.8208 5.632 43.2548 5.8 43.8428 5.968C44.3841 6.12667 44.8228 6.276 45.1588 6.416C45.4948 6.556 45.7841 6.76133 46.0268 7.032C46.2694 7.29333 46.3908 7.63867 46.3908 8.068C46.3908 8.67467 46.1528 9.16 45.6768 9.524C45.2008 9.888 44.5708 10.07 43.7868 10.07Z" fill="white" fill-opacity="0.495556"/>
</svg>
