<svg width="144" height="120" viewBox="0 0 144 120" fill="none" xmlns="http://www.w3.org/2000/svg">
<g filter="url(#filter0_d)">
<mask id="path-1-inside-1" fill="white">
<path fill-rule="evenodd" clip-rule="evenodd" d="M28 84C52.432 79.176 68 57.664 68 37.1C68 21.22 56.856 12 44.796 12C34.336 12 24 19.188 24 31.916C24 42.324 31.62 50.944 41.584 52.512C40.716 60.528 32.924 72.156 24.064 75.496L28 84ZM80 84C104.432 79.176 120 57.664 120 37.1C120 21.22 108.856 12 96.796 12C86.336 12 76 19.188 76 31.916C76 42.324 83.62 50.944 93.584 52.512C92.716 60.528 84.924 72.156 76.064 75.496L80 84Z"/>
</mask>
<path fill-rule="evenodd" clip-rule="evenodd" d="M28 84C52.432 79.176 68 57.664 68 37.1C68 21.22 56.856 12 44.796 12C34.336 12 24 19.188 24 31.916C24 42.324 31.62 50.944 41.584 52.512C40.716 60.528 32.924 72.156 24.064 75.496L28 84ZM80 84C104.432 79.176 120 57.664 120 37.1C120 21.22 108.856 12 96.796 12C86.336 12 76 19.188 76 31.916C76 42.324 83.62 50.944 93.584 52.512C92.716 60.528 84.924 72.156 76.064 75.496L80 84Z" fill="url(#paint0_linear)"/>
<path fill-rule="evenodd" clip-rule="evenodd" d="M28 84C52.432 79.176 68 57.664 68 37.1C68 21.22 56.856 12 44.796 12C34.336 12 24 19.188 24 31.916C24 42.324 31.62 50.944 41.584 52.512C40.716 60.528 32.924 72.156 24.064 75.496L28 84ZM80 84C104.432 79.176 120 57.664 120 37.1C120 21.22 108.856 12 96.796 12C86.336 12 76 19.188 76 31.916C76 42.324 83.62 50.944 93.584 52.512C92.716 60.528 84.924 72.156 76.064 75.496L80 84Z" fill="url(#paint1_linear)"/>
<path d="M28 84L26.185 84.8401L26.8452 86.2666L28.3874 85.9621L28 84ZM41.584 52.512L43.5724 52.7273L43.7775 50.8326L41.8949 50.5363L41.584 52.512ZM24.064 75.496L23.3585 73.6246L21.3453 74.3835L22.249 76.3361L24.064 75.496ZM80 84L78.185 84.8401L78.8452 86.2666L80.3874 85.9621L80 84ZM93.584 52.512L95.5724 52.7273L95.7775 50.8326L93.8949 50.5363L93.584 52.512ZM76.064 75.496L75.3585 73.6246L73.3453 74.3835L74.249 76.3361L76.064 75.496ZM66 37.1C66 56.7287 51.088 77.4027 27.6126 82.0379L28.3874 85.9621C53.776 80.9493 70 58.5993 70 37.1H66ZM44.796 14C55.753 14 66 22.3261 66 37.1H70C70 20.1139 57.959 10 44.796 10V14ZM26 31.916C26 20.5438 35.1714 14 44.796 14V10C33.5006 10 22 17.8322 22 31.916H26ZM41.8949 50.5363C32.888 49.1189 26 41.3239 26 31.916H22C22 43.3241 30.352 52.7691 41.2731 54.4877L41.8949 50.5363ZM24.7695 77.3674C29.6881 75.5132 34.1361 71.4496 37.4354 66.9381C40.7327 62.4293 43.0891 57.1906 43.5724 52.7273L39.5956 52.2967C39.2109 55.8494 37.2373 60.4327 34.2066 64.5769C31.1779 68.7184 27.2999 72.1388 23.3585 73.6246L24.7695 77.3674ZM29.815 83.1599L25.879 74.6559L22.249 76.3361L26.185 84.8401L29.815 83.1599ZM118 37.1C118 56.7287 103.088 77.4027 79.6126 82.0379L80.3874 85.9621C105.776 80.9493 122 58.5993 122 37.1H118ZM96.796 14C107.753 14 118 22.3261 118 37.1H122C122 20.1139 109.959 10 96.796 10V14ZM78 31.916C78 20.5438 87.1714 14 96.796 14V10C85.5006 10 74 17.8322 74 31.916H78ZM93.8949 50.5363C84.888 49.1189 78 41.3239 78 31.916H74C74 43.3241 82.352 52.7691 93.2731 54.4877L93.8949 50.5363ZM76.7695 77.3674C81.6881 75.5132 86.1361 71.4496 89.4354 66.9381C92.7327 62.4293 95.0891 57.1906 95.5724 52.7273L91.5956 52.2967C91.2109 55.8494 89.2373 60.4327 86.2066 64.5769C83.1779 68.7184 79.2999 72.1388 75.3585 73.6246L76.7695 77.3674ZM81.815 83.1599L77.879 74.6559L74.249 76.3361L78.185 84.8401L81.815 83.1599Z" fill="white" fill-opacity="0.0782099" mask="url(#path-1-inside-1)"/>
</g>
<defs>
<filter id="filter0_d" x="0" y="0" width="144" height="120" filterUnits="userSpaceOnUse" color-interpolation-filters="sRGB">
<feFlood flood-opacity="0" result="BackgroundImageFix"/>
<feColorMatrix in="SourceAlpha" type="matrix" values="0 0 0 0 0 0 0 0 0 0 0 0 0 0 0 0 0 0 127 0"/>
<feOffset dy="12"/>
<feGaussianBlur stdDeviation="12"/>
<feColorMatrix type="matrix" values="0 0 0 0 0 0 0 0 0 0.0037911 0 0 0 0 0.170599 0 0 0 0.157184 0"/>
<feBlend mode="normal" in2="BackgroundImageFix" result="effect1_dropShadow"/>
<feBlend mode="normal" in="SourceGraphic" in2="effect1_dropShadow" result="shape"/>
</filter>
<linearGradient id="paint0_linear" x1="24" y1="12" x2="24" y2="84" gradientUnits="userSpaceOnUse">
<stop stop-color="#4D4F95"/>
<stop offset="1" stop-color="#2B2D66"/>
</linearGradient>
<linearGradient id="paint1_linear" x1="120" y1="12" x2="24" y2="12" gradientUnits="userSpaceOnUse">
<stop stop-color="#6357F6"/>
<stop offset="1" stop-color="#E6606C"/>
</linearGradient>
</defs>
</svg>
