<svg width="570" height="570" viewBox="0 0 570 570" fill="none" xmlns="http://www.w3.org/2000/svg">
<g filter="url(#filter0_b)">
<rect x="235.535" y="471" width="48" height="48" transform="rotate(28 235.535 471)" fill="white" fill-opacity="0.0792572"/>
<rect x="234.914" y="468.971" width="51" height="51" transform="rotate(28 234.914 468.971)" stroke="#5087F7" stroke-width="3" stroke-linejoin="round"/>
</g>
<g filter="url(#filter1_b)">
<circle cx="416" cy="109" r="32" fill="white" fill-opacity="0.0792572"/>
<circle cx="416" cy="109" r="33.5" stroke="#E6606C" stroke-width="3" stroke-linejoin="round"/>
</g>
<g filter="url(#filter2_d)">
<rect x="343" y="286" width="100" height="108" rx="8" fill="url(#paint0_linear)"/>
<rect x="343" y="286" width="100" height="108" rx="8" fill="url(#paint1_linear)"/>
<rect x="344" y="287" width="98" height="106" rx="7" stroke="white" stroke-opacity="0.0782099" stroke-width="2"/>
</g>
<path d="M383.774 318.8C384.073 320.219 384.222 321.805 384.222 323.56V341.984C384.222 344.821 383.438 347.117 381.87 348.872C380.34 350.589 378.305 351.448 375.766 351.448C373.452 351.448 371.548 350.589 370.054 348.872C368.561 347.117 367.814 344.821 367.814 341.984V341.368C367.814 340.995 368.001 340.808 368.374 340.808H370.222C370.596 340.808 370.782 340.995 370.782 341.368V341.984C370.782 343.963 371.268 345.587 372.238 346.856C373.209 348.125 374.385 348.76 375.766 348.76C377.409 348.76 378.734 348.144 379.742 346.912C380.75 345.643 381.254 344 381.254 341.984V333.36C381.254 333.248 381.217 333.192 381.142 333.192C381.105 333.192 381.049 333.229 380.974 333.304C380.414 334.237 379.668 334.965 378.734 335.488C377.801 335.973 376.774 336.216 375.654 336.216C373.564 336.216 371.846 335.6 370.502 334.368C369.158 333.136 368.244 331.381 367.758 329.104C367.422 327.573 367.254 325.763 367.254 323.672C367.254 321.88 367.348 320.424 367.534 319.304C367.87 316.728 368.748 314.768 370.166 313.424C371.585 312.043 373.452 311.352 375.766 311.352C377.932 311.352 379.705 311.987 381.086 313.256C382.468 314.488 383.364 316.336 383.774 318.8ZM375.766 333.584C378.38 333.584 380.06 331.979 380.806 328.768C381.105 327.424 381.254 325.781 381.254 323.84C381.254 322.16 381.142 320.629 380.918 319.248C380.172 315.739 378.454 313.984 375.766 313.984C372.929 313.984 371.174 315.851 370.502 319.584C370.316 321.077 370.222 322.496 370.222 323.84C370.222 325.819 370.409 327.555 370.782 329.048C371.529 332.072 373.19 333.584 375.766 333.584ZM405.868 318.8C406.167 320.219 406.316 321.805 406.316 323.56V341.984C406.316 344.821 405.532 347.117 403.964 348.872C402.433 350.589 400.399 351.448 397.86 351.448C395.545 351.448 393.641 350.589 392.148 348.872C390.655 347.117 389.908 344.821 389.908 341.984V341.368C389.908 340.995 390.095 340.808 390.468 340.808H392.316C392.689 340.808 392.876 340.995 392.876 341.368V341.984C392.876 343.963 393.361 345.587 394.332 346.856C395.303 348.125 396.479 348.76 397.86 348.76C399.503 348.76 400.828 348.144 401.836 346.912C402.844 345.643 403.348 344 403.348 341.984V333.36C403.348 333.248 403.311 333.192 403.236 333.192C403.199 333.192 403.143 333.229 403.068 333.304C402.508 334.237 401.761 334.965 400.828 335.488C399.895 335.973 398.868 336.216 397.748 336.216C395.657 336.216 393.94 335.6 392.596 334.368C391.252 333.136 390.337 331.381 389.852 329.104C389.516 327.573 389.348 325.763 389.348 323.672C389.348 321.88 389.441 320.424 389.628 319.304C389.964 316.728 390.841 314.768 392.26 313.424C393.679 312.043 395.545 311.352 397.86 311.352C400.025 311.352 401.799 311.987 403.18 313.256C404.561 314.488 405.457 316.336 405.868 318.8ZM397.86 333.584C400.473 333.584 402.153 331.979 402.9 328.768C403.199 327.424 403.348 325.781 403.348 323.84C403.348 322.16 403.236 320.629 403.012 319.248C402.265 315.739 400.548 313.984 397.86 313.984C395.023 313.984 393.268 315.851 392.596 319.584C392.409 321.077 392.316 322.496 392.316 323.84C392.316 325.819 392.503 327.555 392.876 329.048C393.623 332.072 395.284 333.584 397.86 333.584Z" fill="white"/>
<path d="M414.16 340.608C413.568 340.608 413.016 340.464 412.504 340.176C412.008 339.872 411.616 339.464 411.328 338.952C411.04 338.44 410.896 337.88 410.896 337.272C410.896 336.68 411.04 336.128 411.328 335.616C411.616 335.104 412.008 334.704 412.504 334.416C413.016 334.112 413.568 333.96 414.16 333.96C414.752 333.96 415.296 334.112 415.792 334.416C416.288 334.704 416.68 335.104 416.968 335.616C417.256 336.128 417.4 336.68 417.4 337.272C417.4 337.88 417.256 338.44 416.968 338.952C416.68 339.464 416.288 339.872 415.792 340.176C415.296 340.464 414.752 340.608 414.16 340.608ZM413.704 351C413.608 351 413.536 350.976 413.488 350.928C413.456 350.864 413.464 350.792 413.512 350.712L422.32 334.368C422.368 334.256 422.464 334.2 422.608 334.2H423.112C423.208 334.2 423.272 334.232 423.304 334.296C423.352 334.344 423.352 334.408 423.304 334.488L414.496 350.832C414.448 350.944 414.352 351 414.208 351H413.704ZM414.16 339.792C414.816 339.792 415.376 339.552 415.84 339.072C416.304 338.576 416.536 337.976 416.536 337.272C416.536 336.584 416.304 336 415.84 335.52C415.376 335.04 414.816 334.8 414.16 334.8C413.488 334.8 412.92 335.04 412.456 335.52C411.992 336 411.76 336.584 411.76 337.272C411.76 337.976 411.992 338.576 412.456 339.072C412.92 339.552 413.488 339.792 414.16 339.792ZM422.728 351.24C422.136 351.24 421.584 351.096 421.072 350.808C420.576 350.504 420.184 350.096 419.896 349.584C419.608 349.072 419.464 348.512 419.464 347.904C419.464 347.296 419.608 346.744 419.896 346.248C420.184 345.736 420.576 345.336 421.072 345.048C421.584 344.744 422.136 344.592 422.728 344.592C423.304 344.592 423.84 344.744 424.336 345.048C424.832 345.336 425.224 345.736 425.512 346.248C425.8 346.76 425.944 347.312 425.944 347.904C425.944 348.512 425.8 349.072 425.512 349.584C425.224 350.096 424.832 350.504 424.336 350.808C423.84 351.096 423.304 351.24 422.728 351.24ZM422.728 350.4C423.384 350.4 423.944 350.16 424.408 349.68C424.872 349.184 425.104 348.592 425.104 347.904C425.104 347.216 424.872 346.632 424.408 346.152C423.944 345.656 423.384 345.408 422.728 345.408C422.04 345.408 421.464 345.648 421 346.128C420.536 346.608 420.304 347.2 420.304 347.904C420.304 348.608 420.536 349.2 421 349.68C421.464 350.16 422.04 350.4 422.728 350.4Z" fill="white"/>
<path d="M374.53 373.112C373.475 373.112 372.64 372.874 372.024 372.398C371.417 371.922 371.114 371.287 371.114 370.494V370.06C371.114 369.967 371.16 369.92 371.254 369.92H371.94C372.033 369.92 372.08 369.967 372.08 370.06V370.438C372.08 370.979 372.304 371.418 372.752 371.754C373.2 372.081 373.82 372.244 374.614 372.244C375.332 372.244 375.878 372.095 376.252 371.796C376.625 371.488 376.812 371.082 376.812 370.578C376.812 370.251 376.723 369.971 376.546 369.738C376.378 369.505 376.112 369.285 375.748 369.08C375.393 368.875 374.889 368.637 374.236 368.366C373.536 368.086 372.99 367.843 372.598 367.638C372.215 367.423 371.902 367.153 371.66 366.826C371.426 366.49 371.31 366.07 371.31 365.566C371.31 364.782 371.58 364.175 372.122 363.746C372.672 363.307 373.424 363.088 374.376 363.088C375.412 363.088 376.228 363.331 376.826 363.816C377.423 364.301 377.722 364.945 377.722 365.748V366.056C377.722 366.149 377.675 366.196 377.582 366.196H376.882C376.788 366.196 376.742 366.149 376.742 366.056V365.804C376.742 365.263 376.527 364.819 376.098 364.474C375.678 364.129 375.09 363.956 374.334 363.956C373.671 363.956 373.162 364.091 372.808 364.362C372.453 364.633 372.276 365.025 372.276 365.538C372.276 365.874 372.36 366.154 372.528 366.378C372.705 366.593 372.952 366.784 373.27 366.952C373.596 367.111 374.096 367.321 374.768 367.582C375.449 367.862 375.995 368.123 376.406 368.366C376.826 368.609 377.162 368.907 377.414 369.262C377.675 369.607 377.806 370.032 377.806 370.536C377.806 371.32 377.516 371.945 376.938 372.412C376.359 372.879 375.556 373.112 374.53 373.112ZM383.966 366.056C383.966 365.963 384.012 365.916 384.106 365.916H384.82C384.913 365.916 384.96 365.963 384.96 366.056V372.86C384.96 372.953 384.913 373 384.82 373H384.106C384.012 373 383.966 372.953 383.966 372.86V372.258C383.966 372.239 383.956 372.225 383.938 372.216C383.919 372.207 383.905 372.211 383.896 372.23C383.504 372.809 382.883 373.098 382.034 373.098C381.586 373.098 381.17 373.009 380.788 372.832C380.414 372.645 380.116 372.379 379.892 372.034C379.677 371.689 379.57 371.273 379.57 370.788V366.056C379.57 365.963 379.616 365.916 379.71 365.916H380.424C380.517 365.916 380.564 365.963 380.564 366.056V370.494C380.564 371.026 380.713 371.451 381.012 371.768C381.31 372.076 381.716 372.23 382.23 372.23C382.762 372.23 383.182 372.071 383.49 371.754C383.807 371.437 383.966 371.017 383.966 370.494V366.056ZM389.861 373.112C389.189 373.112 388.611 372.939 388.125 372.594C387.649 372.239 387.323 371.763 387.145 371.166C387.024 370.755 386.963 370.177 386.963 369.43C386.963 368.758 387.024 368.189 387.145 367.722C387.313 367.143 387.64 366.681 388.125 366.336C388.611 365.981 389.189 365.804 389.861 365.804C390.543 365.804 391.131 365.977 391.625 366.322C392.129 366.667 392.456 367.097 392.605 367.61C392.652 367.778 392.68 367.918 392.689 368.03V368.058C392.689 368.123 392.647 368.165 392.563 368.184L391.863 368.282H391.835C391.77 368.282 391.728 368.24 391.709 368.156L391.667 367.946C391.583 367.591 391.378 367.293 391.051 367.05C390.725 366.798 390.328 366.672 389.861 366.672C389.395 366.672 389.003 366.798 388.685 367.05C388.377 367.293 388.177 367.619 388.083 368.03C387.999 368.385 387.957 368.856 387.957 369.444C387.957 370.06 387.999 370.536 388.083 370.872C388.177 371.292 388.377 371.628 388.685 371.88C389.003 372.123 389.395 372.244 389.861 372.244C390.319 372.244 390.711 372.127 391.037 371.894C391.373 371.651 391.583 371.343 391.667 370.97V370.914L391.681 370.858C391.691 370.765 391.747 370.727 391.849 370.746L392.535 370.858C392.629 370.877 392.671 370.928 392.661 371.012L392.605 371.292C392.465 371.833 392.143 372.272 391.639 372.608C391.135 372.944 390.543 373.112 389.861 373.112ZM397.094 373.112C396.422 373.112 395.843 372.939 395.358 372.594C394.882 372.239 394.555 371.763 394.378 371.166C394.256 370.755 394.196 370.177 394.196 369.43C394.196 368.758 394.256 368.189 394.378 367.722C394.546 367.143 394.872 366.681 395.358 366.336C395.843 365.981 396.422 365.804 397.094 365.804C397.775 365.804 398.363 365.977 398.858 366.322C399.362 366.667 399.688 367.097 399.838 367.61C399.884 367.778 399.912 367.918 399.922 368.03V368.058C399.922 368.123 399.88 368.165 399.796 368.184L399.096 368.282H399.068C399.002 368.282 398.96 368.24 398.942 368.156L398.9 367.946C398.816 367.591 398.61 367.293 398.284 367.05C397.957 366.798 397.56 366.672 397.094 366.672C396.627 366.672 396.235 366.798 395.918 367.05C395.61 367.293 395.409 367.619 395.316 368.03C395.232 368.385 395.19 368.856 395.19 369.444C395.19 370.06 395.232 370.536 395.316 370.872C395.409 371.292 395.61 371.628 395.918 371.88C396.235 372.123 396.627 372.244 397.094 372.244C397.551 372.244 397.943 372.127 398.27 371.894C398.606 371.651 398.816 371.343 398.9 370.97V370.914L398.914 370.858C398.923 370.765 398.979 370.727 399.082 370.746L399.768 370.858C399.861 370.877 399.903 370.928 399.894 371.012L399.838 371.292C399.698 371.833 399.376 372.272 398.872 372.608C398.368 372.944 397.775 373.112 397.094 373.112ZM407.084 368.268C407.122 368.529 407.14 368.856 407.14 369.248V369.696C407.14 369.789 407.094 369.836 407 369.836H402.478C402.441 369.836 402.422 369.855 402.422 369.892C402.441 370.405 402.469 370.737 402.506 370.886C402.609 371.306 402.828 371.637 403.164 371.88C403.5 372.123 403.93 372.244 404.452 372.244C404.844 372.244 405.19 372.155 405.488 371.978C405.787 371.801 406.02 371.549 406.188 371.222C406.244 371.138 406.31 371.119 406.384 371.166L406.93 371.488C407.005 371.535 407.024 371.6 406.986 371.684C406.753 372.132 406.403 372.487 405.936 372.748C405.47 373 404.933 373.126 404.326 373.126C403.664 373.117 403.108 372.958 402.66 372.65C402.212 372.342 401.89 371.913 401.694 371.362C401.526 370.914 401.442 370.27 401.442 369.43C401.442 369.038 401.447 368.721 401.456 368.478C401.475 368.226 401.512 368.002 401.568 367.806C401.727 367.199 402.044 366.714 402.52 366.35C403.006 365.986 403.589 365.804 404.27 365.804C405.12 365.804 405.773 366.019 406.23 366.448C406.688 366.877 406.972 367.484 407.084 368.268ZM404.27 366.672C403.813 366.672 403.43 366.793 403.122 367.036C402.824 367.269 402.628 367.587 402.534 367.988C402.478 368.184 402.441 368.501 402.422 368.94C402.422 368.977 402.441 368.996 402.478 368.996H406.104C406.142 368.996 406.16 368.977 406.16 368.94C406.142 368.52 406.114 368.221 406.076 368.044C405.974 367.624 405.764 367.293 405.446 367.05C405.138 366.798 404.746 366.672 404.27 366.672ZM411.318 373.07C410.795 373.07 410.329 372.986 409.918 372.818C409.517 372.65 409.204 372.426 408.98 372.146C408.765 371.866 408.658 371.553 408.658 371.208V371.04C408.658 370.947 408.705 370.9 408.798 370.9H409.47C409.563 370.9 409.61 370.947 409.61 371.04V371.152C409.61 371.46 409.769 371.731 410.086 371.964C410.413 372.188 410.819 372.3 411.304 372.3C411.789 372.3 412.181 372.193 412.48 371.978C412.779 371.754 412.928 371.474 412.928 371.138C412.928 370.905 412.849 370.713 412.69 370.564C412.541 370.415 412.359 370.298 412.144 370.214C411.939 370.13 411.617 370.023 411.178 369.892C410.655 369.743 410.226 369.593 409.89 369.444C409.554 369.295 409.269 369.089 409.036 368.828C408.812 368.557 408.7 368.217 408.7 367.806C408.7 367.209 408.933 366.733 409.4 366.378C409.867 366.023 410.483 365.846 411.248 365.846C411.761 365.846 412.214 365.93 412.606 366.098C413.007 366.266 413.315 366.499 413.53 366.798C413.745 367.087 413.852 367.414 413.852 367.778V367.82C413.852 367.913 413.805 367.96 413.712 367.96H413.054C412.961 367.96 412.914 367.913 412.914 367.82V367.778C412.914 367.461 412.76 367.195 412.452 366.98C412.153 366.765 411.747 366.658 411.234 366.658C410.758 366.658 410.375 366.756 410.086 366.952C409.797 367.139 409.652 367.4 409.652 367.736C409.652 368.053 409.792 368.296 410.072 368.464C410.352 368.632 410.786 368.8 411.374 368.968C411.915 369.127 412.354 369.276 412.69 369.416C413.026 369.556 413.315 369.761 413.558 370.032C413.801 370.293 413.922 370.639 413.922 371.068C413.922 371.675 413.684 372.16 413.208 372.524C412.732 372.888 412.102 373.07 411.318 373.07Z" fill="white" fill-opacity="0.495556"/>
<g filter="url(#filter3_b)">
<rect x="525.077" y="226.182" width="12" height="12" transform="rotate(-20 525.077 226.182)" stroke="#AD47BF" stroke-width="3" stroke-linecap="square" stroke-linejoin="round"/>
</g>
<g filter="url(#filter4_b)">
<circle cx="36.5" cy="165.5" r="6.5" fill="white" fill-opacity="0.0792572"/>
<circle cx="36.5" cy="165.5" r="8" stroke="#E6606C" stroke-width="3" stroke-linejoin="round"/>
</g>
<g filter="url(#filter5_b)">
<path d="M190.381 90.8241L198.558 120.512L167 110.864L190.381 90.8241Z" fill="white" fill-opacity="0.0792572"/>
<path d="M191.827 90.4258C191.69 89.9307 191.31 89.5398 190.819 89.3897C190.328 89.2395 189.794 89.351 189.405 89.6852L166.024 109.725C165.608 110.081 165.42 110.635 165.532 111.171C165.644 111.706 166.038 112.138 166.561 112.298L198.12 121.947C198.643 122.107 199.212 121.969 199.604 121.588C199.996 121.206 200.149 120.641 200.004 120.114L191.827 90.4258Z" stroke="#6357F6" stroke-width="3" stroke-linejoin="round"/>
</g>
<path d="M76.9323 282.272L78.8234 281.621L78.1722 279.73L76.2812 280.381L76.9323 282.272ZM73.1503 283.574L72.4991 281.683L70.6081 282.334L71.2592 284.225L73.1503 283.574ZM80.9639 306.267L81.615 308.158L83.5061 307.506L82.8549 305.615L80.9639 306.267ZM58.2715 314.08L57.6203 312.189L55.7293 312.84L56.3804 314.731L58.2715 314.08ZM59.5737 317.862L57.6827 318.513L58.3338 320.404L60.2249 319.753L59.5737 317.862ZM61.4648 317.211L60.8136 315.32L61.4648 317.211ZM82.2662 310.049L84.1572 309.397L83.5061 307.506L81.615 308.158L82.2662 310.049ZM90.0798 332.741L88.1888 333.392L88.8399 335.283L90.731 334.632L90.0798 332.741ZM93.8619 331.439L94.513 333.33L96.4041 332.679L95.7529 330.788L93.8619 331.439ZM86.0483 308.746L85.3971 306.855L83.5061 307.506L84.1572 309.397L86.0483 308.746ZM106.85 301.584L107.501 303.475L106.85 301.584ZM108.741 300.933L109.392 302.824L111.283 302.173L110.632 300.282L108.741 300.933ZM107.438 297.151L109.329 296.499L108.678 294.608L106.787 295.26L107.438 297.151ZM84.746 304.964L82.8549 305.615L83.5061 307.506L85.3971 306.855L84.746 304.964ZM75.0413 282.923L75.6924 284.814L79.4745 283.512L78.8234 281.621L75.0413 282.923ZM73.8014 285.465L77.5835 284.163L76.2812 280.381L72.4991 281.683L73.8014 285.465ZM75.6924 284.814L75.0413 282.923L71.2592 284.225L71.9104 286.116L75.6924 284.814ZM82.8549 305.615L75.6924 284.814L71.9104 286.116L79.0729 306.918L82.8549 305.615ZM60.8136 315.32L81.615 308.158L80.3128 304.375L59.5114 311.538L60.8136 315.32ZM58.9226 315.971L60.8136 315.32L59.5114 311.538L57.6203 312.189L58.9226 315.971ZM61.4648 317.211L60.1625 313.429L56.3804 314.731L57.6827 318.513L61.4648 317.211ZM60.8136 315.32L58.9226 315.971L60.2249 319.753L62.1159 319.102L60.8136 315.32ZM81.615 308.158L60.8136 315.32L62.1159 319.102L82.9173 311.94L81.615 308.158ZM91.3197 330.199L84.1572 309.397L80.3751 310.7L87.5376 331.501L91.3197 330.199ZM91.9709 332.09L91.3197 330.199L87.5376 331.501L88.1888 333.392L91.9709 332.09ZM93.2108 329.548L89.4287 330.85L90.731 334.632L94.513 333.33L93.2108 329.548ZM91.3197 330.199L91.9709 332.09L95.7529 330.788L95.1018 328.897L91.3197 330.199ZM84.1572 309.397L91.3197 330.199L95.1018 328.897L87.9393 308.095L84.1572 309.397ZM106.199 299.693L85.3971 306.855L86.6994 310.637L107.501 303.475L106.199 299.693ZM108.09 299.042L106.199 299.693L107.501 303.475L109.392 302.824L108.09 299.042ZM105.547 297.802L106.85 301.584L110.632 300.282L109.329 296.499L105.547 297.802ZM106.199 299.693L108.09 299.042L106.787 295.26L104.896 295.911L106.199 299.693ZM85.3971 306.855L106.199 299.693L104.896 295.911L84.0948 303.073L85.3971 306.855ZM75.6924 284.814L82.8549 305.615L86.637 304.313L79.4745 283.512L75.6924 284.814Z" fill="#AD47BF"/>
<path d="M482.332 443.285L483.656 442.581L482.952 441.257L481.628 441.961L482.332 443.285ZM478.8 445.163L478.096 443.839L476.772 444.543L477.476 445.867L478.8 445.163ZM482.812 452.708L483.546 454.016L484.825 453.298L484.136 452.004L482.812 452.708ZM477.102 455.912L476.368 454.604L477.102 455.912ZM475.358 456.891L474.624 455.583L473.316 456.317L474.05 457.625L475.358 456.891ZM477.316 460.379L476.008 461.113L476.742 462.421L478.05 461.687L477.316 460.379ZM479.06 459.4L478.326 458.092L479.06 459.4ZM484.69 456.241L486.015 455.536L485.294 454.182L483.956 454.932L484.69 456.241ZM488.659 463.705L487.335 464.409L488.039 465.734L489.363 465.03L488.659 463.705ZM492.191 461.827L492.895 463.152L494.22 462.447L493.515 461.123L492.191 461.827ZM488.179 454.283L487.445 452.974L486.166 453.692L486.855 454.987L488.179 454.283ZM493.889 451.079L494.623 452.387L493.889 451.079ZM495.633 450.1L496.367 451.408L497.675 450.674L496.941 449.366L495.633 450.1ZM493.675 446.612L494.984 445.878L494.25 444.569L492.941 445.303L493.675 446.612ZM491.931 447.59L492.665 448.898L491.931 447.59ZM486.301 450.75L484.977 451.454L485.697 452.809L487.035 452.058L486.301 450.75ZM481.008 443.99L481.947 445.755L484.595 444.347L483.656 442.581L481.008 443.99ZM479.504 446.488L483.036 444.61L481.628 441.961L478.096 443.839L479.504 446.488ZM481.064 446.225L480.125 444.459L477.476 445.867L478.415 447.633L481.064 446.225ZM484.136 452.004L481.064 446.225L478.415 447.633L481.487 453.412L484.136 452.004ZM477.836 457.22L483.546 454.016L482.078 451.4L476.368 454.604L477.836 457.22ZM476.092 458.199L477.836 457.22L476.368 454.604L474.624 455.583L476.092 458.199ZM478.624 459.645L476.666 456.157L474.05 457.625L476.008 461.113L478.624 459.645ZM478.326 458.092L476.582 459.071L478.05 461.687L479.794 460.708L478.326 458.092ZM483.956 454.932L478.326 458.092L479.794 460.708L485.424 457.549L483.956 454.932ZM489.045 461.235L486.015 455.536L483.366 456.945L486.396 462.643L489.045 461.235ZM489.984 463.001L489.045 461.235L486.396 462.643L487.335 464.409L489.984 463.001ZM491.487 460.503L487.955 462.381L489.363 465.03L492.895 463.152L491.487 460.503ZM489.928 460.766L490.866 462.531L493.515 461.123L492.576 459.357L489.928 460.766ZM486.855 454.987L489.928 460.766L492.576 459.357L489.504 453.578L486.855 454.987ZM493.155 449.771L487.445 452.974L488.913 455.591L494.623 452.387L493.155 449.771ZM494.899 448.792L493.155 449.771L494.623 452.387L496.367 451.408L494.899 448.792ZM492.367 447.346L494.325 450.834L496.941 449.366L494.984 445.878L492.367 447.346ZM492.665 448.898L494.41 447.92L492.941 445.303L491.197 446.282L492.665 448.898ZM487.035 452.058L492.665 448.898L491.197 446.282L485.567 449.442L487.035 452.058ZM481.947 445.755L484.977 451.454L487.625 450.046L484.595 444.347L481.947 445.755Z" fill="#AD47BF"/>
<defs>
<filter id="filter0_b" x="200.788" y="458.788" width="89.3403" height="89.3403" filterUnits="userSpaceOnUse" color-interpolation-filters="sRGB">
<feFlood flood-opacity="0" result="BackgroundImageFix"/>
<feGaussianBlur in="BackgroundImage" stdDeviation="4.07742"/>
<feComposite in2="SourceAlpha" operator="in" result="effect1_backgroundBlur"/>
<feBlend mode="normal" in="SourceGraphic" in2="effect1_backgroundBlur" result="shape"/>
</filter>
<filter id="filter1_b" x="372.845" y="65.8452" width="86.3097" height="86.3097" filterUnits="userSpaceOnUse" color-interpolation-filters="sRGB">
<feFlood flood-opacity="0" result="BackgroundImageFix"/>
<feGaussianBlur in="BackgroundImage" stdDeviation="4.07742"/>
<feComposite in2="SourceAlpha" operator="in" result="effect1_backgroundBlur"/>
<feBlend mode="normal" in="SourceGraphic" in2="effect1_backgroundBlur" result="shape"/>
</filter>
<filter id="filter2_d" x="295" y="262" width="196" height="204" filterUnits="userSpaceOnUse" color-interpolation-filters="sRGB">
<feFlood flood-opacity="0" result="BackgroundImageFix"/>
<feColorMatrix in="SourceAlpha" type="matrix" values="0 0 0 0 0 0 0 0 0 0 0 0 0 0 0 0 0 0 127 0"/>
<feOffset dy="24"/>
<feGaussianBlur stdDeviation="24"/>
<feColorMatrix type="matrix" values="0 0 0 0 0 0 0 0 0 0.0037911 0 0 0 0 0.170599 0 0 0 0.157184 0"/>
<feBlend mode="normal" in2="BackgroundImageFix" result="effect1_dropShadow"/>
<feBlend mode="normal" in="SourceGraphic" in2="effect1_dropShadow" result="shape"/>
</filter>
<filter id="filter3_b" x="515" y="212" width="35.5354" height="35.5354" filterUnits="userSpaceOnUse" color-interpolation-filters="sRGB">
<feFlood flood-opacity="0" result="BackgroundImageFix"/>
<feGaussianBlur in="BackgroundImage" stdDeviation="4.07742"/>
<feComposite in2="SourceAlpha" operator="in" result="effect1_backgroundBlur"/>
<feBlend mode="normal" in="SourceGraphic" in2="effect1_backgroundBlur" result="shape"/>
</filter>
<filter id="filter4_b" x="18.8452" y="147.845" width="35.3097" height="35.3097" filterUnits="userSpaceOnUse" color-interpolation-filters="sRGB">
<feFlood flood-opacity="0" result="BackgroundImageFix"/>
<feGaussianBlur in="BackgroundImage" stdDeviation="4.07742"/>
<feComposite in2="SourceAlpha" operator="in" result="effect1_backgroundBlur"/>
<feBlend mode="normal" in="SourceGraphic" in2="effect1_backgroundBlur" result="shape"/>
</filter>
<filter id="filter5_b" x="155.099" y="74.0991" width="62.9615" height="58.3139" filterUnits="userSpaceOnUse" color-interpolation-filters="sRGB">
<feFlood flood-opacity="0" result="BackgroundImageFix"/>
<feGaussianBlur in="BackgroundImage" stdDeviation="4.07742"/>
<feComposite in2="SourceAlpha" operator="in" result="effect1_backgroundBlur"/>
<feBlend mode="normal" in="SourceGraphic" in2="effect1_backgroundBlur" result="shape"/>
</filter>
<linearGradient id="paint0_linear" x1="343" y1="286" x2="343" y2="394" gradientUnits="userSpaceOnUse">
<stop stop-color="#4D4F95"/>
<stop offset="1" stop-color="#2B2D66"/>
</linearGradient>
<linearGradient id="paint1_linear" x1="443" y1="286" x2="343" y2="286" gradientUnits="userSpaceOnUse">
<stop stop-color="#6357F6"/>
<stop offset="1" stop-color="#E6606C"/>
</linearGradient>
</defs>
</svg>
