<svg width="64" height="44" viewBox="0 0 64 44" fill="none" xmlns="http://www.w3.org/2000/svg">
<g filter="url(#filter0_d)">
<mask id="path-1-inside-1" fill="white">
<path fill-rule="evenodd" clip-rule="evenodd" d="M52.6226 11.3614L55.8402 24.8342C56.7143 28.495 53.8923 32 50.0804 32C48.4563 32 46.9303 31.1484 46.0961 29.7779L43.6179 25.7089C43.1942 25.0124 42.419 24.5798 41.595 24.5798H22.4046C21.5806 24.5798 20.8057 25.0121 20.382 25.7085L17.9035 29.7782C17.0697 31.1484 15.5437 32 13.9214 32C10.1036 32 7.28639 28.4914 8.15979 24.8342L11.3773 11.3614C12.5613 6.4022 17.0253 4 20.8094 4H43.1909C48.3611 4 51.7562 7.73194 52.6226 11.3614ZM24.3697 15.6754H25.9758C26.7522 15.6754 27.3817 15.0551 27.3817 14.2901C27.3817 13.5247 26.7522 12.9044 25.9758 12.9044H24.3697V11.3217C24.3697 10.5567 23.7401 9.93639 22.9634 9.93639C22.187 9.93639 21.5575 10.5567 21.5575 11.3217V12.9044H19.9513C19.175 12.9044 18.5455 13.5247 18.5455 14.2901C18.5455 15.0551 19.175 15.6754 19.9513 15.6754H21.5575V17.2581C21.5575 18.0231 22.187 18.6434 22.9634 18.6434C23.7401 18.6434 24.3697 18.0231 24.3697 17.2581V15.6754ZM38.0241 15.6754C37.2481 15.6754 36.6182 15.0547 36.6182 14.2901C36.6182 13.5251 37.2485 12.9044 38.0241 12.9044C38.8005 12.9044 39.4303 13.5251 39.4303 14.2901C39.4303 15.0547 38.8005 15.6754 38.0241 15.6754ZM39.6303 17.2581C39.6303 18.0227 40.2605 18.6434 41.0365 18.6434C41.8125 18.6434 42.4424 18.0227 42.4424 17.2581C42.4424 16.4934 41.8125 15.8724 41.0365 15.8724C40.2605 15.8724 39.6303 16.4934 39.6303 17.2581ZM41.0365 12.7074C40.2605 12.7074 39.6303 12.0867 39.6303 11.3217C39.6303 10.5571 40.2605 9.93639 41.0365 9.93639C41.8125 9.93639 42.4424 10.5571 42.4424 11.3217C42.4424 12.0867 41.8125 12.7074 41.0365 12.7074ZM42.6424 14.2901C42.6424 15.0547 43.2726 15.6754 44.0486 15.6754C44.8246 15.6754 45.4545 15.0547 45.4545 14.2901C45.4545 13.5251 44.8246 12.9044 44.0486 12.9044C43.2726 12.9044 42.6424 13.5251 42.6424 14.2901Z"/>
</mask>
<path fill-rule="evenodd" clip-rule="evenodd" d="M52.6226 11.3614L55.8402 24.8342C56.7143 28.495 53.8923 32 50.0804 32C48.4563 32 46.9303 31.1484 46.0961 29.7779L43.6179 25.7089C43.1942 25.0124 42.419 24.5798 41.595 24.5798H22.4046C21.5806 24.5798 20.8057 25.0121 20.382 25.7085L17.9035 29.7782C17.0697 31.1484 15.5437 32 13.9214 32C10.1036 32 7.28639 28.4914 8.15979 24.8342L11.3773 11.3614C12.5613 6.4022 17.0253 4 20.8094 4H43.1909C48.3611 4 51.7562 7.73194 52.6226 11.3614ZM24.3697 15.6754H25.9758C26.7522 15.6754 27.3817 15.0551 27.3817 14.2901C27.3817 13.5247 26.7522 12.9044 25.9758 12.9044H24.3697V11.3217C24.3697 10.5567 23.7401 9.93639 22.9634 9.93639C22.187 9.93639 21.5575 10.5567 21.5575 11.3217V12.9044H19.9513C19.175 12.9044 18.5455 13.5247 18.5455 14.2901C18.5455 15.0551 19.175 15.6754 19.9513 15.6754H21.5575V17.2581C21.5575 18.0231 22.187 18.6434 22.9634 18.6434C23.7401 18.6434 24.3697 18.0231 24.3697 17.2581V15.6754ZM38.0241 15.6754C37.2481 15.6754 36.6182 15.0547 36.6182 14.2901C36.6182 13.5251 37.2485 12.9044 38.0241 12.9044C38.8005 12.9044 39.4303 13.5251 39.4303 14.2901C39.4303 15.0547 38.8005 15.6754 38.0241 15.6754ZM39.6303 17.2581C39.6303 18.0227 40.2605 18.6434 41.0365 18.6434C41.8125 18.6434 42.4424 18.0227 42.4424 17.2581C42.4424 16.4934 41.8125 15.8724 41.0365 15.8724C40.2605 15.8724 39.6303 16.4934 39.6303 17.2581ZM41.0365 12.7074C40.2605 12.7074 39.6303 12.0867 39.6303 11.3217C39.6303 10.5571 40.2605 9.93639 41.0365 9.93639C41.8125 9.93639 42.4424 10.5571 42.4424 11.3217C42.4424 12.0867 41.8125 12.7074 41.0365 12.7074ZM42.6424 14.2901C42.6424 15.0547 43.2726 15.6754 44.0486 15.6754C44.8246 15.6754 45.4545 15.0547 45.4545 14.2901C45.4545 13.5251 44.8246 12.9044 44.0486 12.9044C43.2726 12.9044 42.6424 13.5251 42.6424 14.2901Z" fill="url(#paint0_linear)"/>
<path fill-rule="evenodd" clip-rule="evenodd" d="M52.6226 11.3614L55.8402 24.8342C56.7143 28.495 53.8923 32 50.0804 32C48.4563 32 46.9303 31.1484 46.0961 29.7779L43.6179 25.7089C43.1942 25.0124 42.419 24.5798 41.595 24.5798H22.4046C21.5806 24.5798 20.8057 25.0121 20.382 25.7085L17.9035 29.7782C17.0697 31.1484 15.5437 32 13.9214 32C10.1036 32 7.28639 28.4914 8.15979 24.8342L11.3773 11.3614C12.5613 6.4022 17.0253 4 20.8094 4H43.1909C48.3611 4 51.7562 7.73194 52.6226 11.3614ZM24.3697 15.6754H25.9758C26.7522 15.6754 27.3817 15.0551 27.3817 14.2901C27.3817 13.5247 26.7522 12.9044 25.9758 12.9044H24.3697V11.3217C24.3697 10.5567 23.7401 9.93639 22.9634 9.93639C22.187 9.93639 21.5575 10.5567 21.5575 11.3217V12.9044H19.9513C19.175 12.9044 18.5455 13.5247 18.5455 14.2901C18.5455 15.0551 19.175 15.6754 19.9513 15.6754H21.5575V17.2581C21.5575 18.0231 22.187 18.6434 22.9634 18.6434C23.7401 18.6434 24.3697 18.0231 24.3697 17.2581V15.6754ZM38.0241 15.6754C37.2481 15.6754 36.6182 15.0547 36.6182 14.2901C36.6182 13.5251 37.2485 12.9044 38.0241 12.9044C38.8005 12.9044 39.4303 13.5251 39.4303 14.2901C39.4303 15.0547 38.8005 15.6754 38.0241 15.6754ZM39.6303 17.2581C39.6303 18.0227 40.2605 18.6434 41.0365 18.6434C41.8125 18.6434 42.4424 18.0227 42.4424 17.2581C42.4424 16.4934 41.8125 15.8724 41.0365 15.8724C40.2605 15.8724 39.6303 16.4934 39.6303 17.2581ZM41.0365 12.7074C40.2605 12.7074 39.6303 12.0867 39.6303 11.3217C39.6303 10.5571 40.2605 9.93639 41.0365 9.93639C41.8125 9.93639 42.4424 10.5571 42.4424 11.3217C42.4424 12.0867 41.8125 12.7074 41.0365 12.7074ZM42.6424 14.2901C42.6424 15.0547 43.2726 15.6754 44.0486 15.6754C44.8246 15.6754 45.4545 15.0547 45.4545 14.2901C45.4545 13.5251 44.8246 12.9044 44.0486 12.9044C43.2726 12.9044 42.6424 13.5251 42.6424 14.2901Z" fill="url(#paint1_linear)"/>
<path d="M55.8402 24.8342L56.8128 24.6019L56.8128 24.6019L55.8402 24.8342ZM52.6226 11.3614L51.65 11.5936L51.65 11.5937L52.6226 11.3614ZM46.0961 29.7779L46.9503 29.2579L46.9501 29.2577L46.0961 29.7779ZM43.6179 25.7089L42.7636 26.2286L42.7639 26.2291L43.6179 25.7089ZM20.382 25.7085L21.2361 26.2287L21.2363 26.2283L20.382 25.7085ZM17.9035 29.7782L17.0494 29.2581L17.0493 29.2584L17.9035 29.7782ZM8.15979 24.8342L9.13244 25.0665L9.13244 25.0665L8.15979 24.8342ZM11.3773 11.3614L12.35 11.5937L12.35 11.5936L11.3773 11.3614ZM24.3697 15.6754V14.6754H23.3697V15.6754H24.3697ZM24.3697 12.9044H23.3697V13.9044H24.3697V12.9044ZM21.5575 12.9044V13.9044H22.5575V12.9044H21.5575ZM21.5575 15.6754H22.5575V14.6754H21.5575V15.6754ZM56.8128 24.6019L53.5953 11.1291L51.65 11.5937L54.8675 25.0665L56.8128 24.6019ZM50.0804 33C54.5188 33 57.8416 28.9103 56.8128 24.6019L54.8675 25.0664C55.587 28.0798 53.2658 31 50.0804 31V33ZM45.2419 30.2978C46.2601 31.9706 48.1122 33 50.0804 33V31C48.8004 31 47.6005 30.3262 46.9503 29.2579L45.2419 30.2978ZM42.7639 26.2291L45.242 30.298L46.9501 29.2577L44.472 25.1887L42.7639 26.2291ZM41.595 25.5798C42.0746 25.5798 42.5238 25.8344 42.7636 26.2286L44.4723 25.1891C43.8647 24.1905 42.7634 23.5798 41.595 23.5798V25.5798ZM22.4046 25.5798H41.595V23.5798H22.4046V25.5798ZM21.2363 26.2283C21.4761 25.8341 21.9249 25.5798 22.4046 25.5798V23.5798C21.2363 23.5798 20.1353 24.19 19.5277 25.1888L21.2363 26.2283ZM18.7576 30.2984L21.2361 26.2287L19.5279 25.1884L17.0494 29.2581L18.7576 30.2984ZM13.9214 33C15.8879 33 17.74 31.9705 18.7577 30.2981L17.0493 29.2584C16.3993 30.3263 15.1994 31 13.9214 31V33ZM7.18715 24.6019C6.15925 28.906 9.4764 33 13.9214 33V31C10.7309 31 8.41352 28.0768 9.13244 25.0665L7.18715 24.6019ZM10.4047 11.1291L7.18715 24.6019L9.13244 25.0665L12.35 11.5937L10.4047 11.1291ZM20.8094 3C16.6605 3 11.7173 5.631 10.4046 11.1292L12.35 11.5936C13.4052 7.1734 17.3902 5 20.8094 5V3ZM43.1909 3H20.8094V5H43.1909V3ZM53.5953 11.1292C52.6396 7.12569 48.8979 3 43.1909 3V5C47.8243 5 50.8728 8.33818 51.65 11.5936L53.5953 11.1292ZM25.9758 14.6754H24.3697V16.6754H25.9758V14.6754ZM26.3817 14.2901C26.3817 14.489 26.2139 14.6754 25.9758 14.6754V16.6754C27.2905 16.6754 28.3817 15.6212 28.3817 14.2901H26.3817ZM25.9758 13.9044C26.2137 13.9044 26.3817 14.0907 26.3817 14.2901H28.3817C28.3817 12.9588 27.2907 11.9044 25.9758 11.9044V13.9044ZM24.3697 13.9044H25.9758V11.9044H24.3697V13.9044ZM23.3697 11.3217V12.9044H25.3697V11.3217H23.3697ZM22.9634 10.9364C23.202 10.9364 23.3697 11.123 23.3697 11.3217H25.3697C25.3697 9.9904 24.2783 8.93639 22.9634 8.93639V10.9364ZM22.5575 11.3217C22.5575 11.1228 22.7254 10.9364 22.9634 10.9364V8.93639C21.6487 8.93639 20.5575 9.99057 20.5575 11.3217H22.5575ZM22.5575 12.9044V11.3217H20.5575V12.9044H22.5575ZM19.9513 13.9044H21.5575V11.9044H19.9513V13.9044ZM19.5455 14.2901C19.5455 14.0907 19.7135 13.9044 19.9513 13.9044V11.9044C18.6365 11.9044 17.5455 12.9588 17.5455 14.2901H19.5455ZM19.9513 14.6754C19.7133 14.6754 19.5455 14.489 19.5455 14.2901H17.5455C17.5455 15.6212 18.6366 16.6754 19.9513 16.6754V14.6754ZM21.5575 14.6754H19.9513V16.6754H21.5575V14.6754ZM22.5575 17.2581V15.6754H20.5575V17.2581H22.5575ZM22.9634 17.6434C22.7254 17.6434 22.5575 17.457 22.5575 17.2581H20.5575C20.5575 18.5892 21.6487 19.6434 22.9634 19.6434V17.6434ZM23.3697 17.2581C23.3697 17.4568 23.202 17.6434 22.9634 17.6434V19.6434C24.2783 19.6434 25.3697 18.5894 25.3697 17.2581H23.3697ZM23.3697 15.6754V17.2581H25.3697V15.6754H23.3697ZM35.6182 14.2901C35.6182 15.6208 36.7098 16.6754 38.0241 16.6754V14.6754C37.7865 14.6754 37.6182 14.4886 37.6182 14.2901H35.6182ZM38.0241 11.9044C36.7101 11.9044 35.6182 12.9589 35.6182 14.2901H37.6182C37.6182 14.0912 37.7868 13.9044 38.0241 13.9044V11.9044ZM40.4304 14.2901C40.4304 12.9589 39.3388 11.9044 38.0241 11.9044V13.9044C38.2621 13.9044 38.4303 14.0912 38.4303 14.2901H40.4304ZM38.0241 16.6754C39.3386 16.6754 40.4304 15.621 40.4304 14.2901H38.4303C38.4303 14.4884 38.2623 14.6754 38.0241 14.6754V16.6754ZM41.0365 17.6434C40.7985 17.6434 40.6303 17.4563 40.6303 17.2581H38.6303C38.6303 18.5892 39.7225 19.6434 41.0365 19.6434V17.6434ZM41.4424 17.2581C41.4424 17.4566 41.2742 17.6434 41.0365 17.6434V19.6434C42.3509 19.6434 43.4424 18.5889 43.4424 17.2581H41.4424ZM41.0365 16.8724C41.2738 16.8724 41.4424 17.0592 41.4424 17.2581H43.4424C43.4424 15.9277 42.3512 14.8724 41.0365 14.8724V16.8724ZM40.6303 17.2581C40.6303 17.0596 40.7989 16.8724 41.0365 16.8724V14.8724C39.7222 14.8724 38.6303 15.9273 38.6303 17.2581H40.6303ZM38.6303 11.3217C38.6303 12.653 39.7224 13.7074 41.0365 13.7074V11.7074C40.7987 11.7074 40.6303 11.5204 40.6303 11.3217H38.6303ZM41.0365 8.93639C39.7225 8.93639 38.6303 9.99059 38.6303 11.3217H40.6303C40.6303 11.1235 40.7985 10.9364 41.0365 10.9364V8.93639ZM43.4424 11.3217C43.4424 9.99093 42.3509 8.93639 41.0365 8.93639V10.9364C41.2742 10.9364 41.4424 11.1232 41.4424 11.3217H43.4424ZM41.0365 13.7074C42.351 13.7074 43.4424 12.6527 43.4424 11.3217H41.4424C41.4424 11.5208 41.274 11.7074 41.0365 11.7074V13.7074ZM44.0486 14.6754C43.8106 14.6754 43.6424 14.4883 43.6424 14.2901H41.6424C41.6424 15.6212 42.7346 16.6754 44.0486 16.6754V14.6754ZM44.4545 14.2901C44.4545 14.4886 44.2863 14.6754 44.0486 14.6754V16.6754C45.3629 16.6754 46.4545 15.6208 46.4545 14.2901H44.4545ZM44.0486 13.9044C44.2861 13.9044 44.4545 14.091 44.4545 14.2901H46.4545C46.4545 12.9591 45.3631 11.9044 44.0486 11.9044V13.9044ZM43.6424 14.2901C43.6424 14.0914 43.8108 13.9044 44.0486 13.9044V11.9044C42.7344 11.9044 41.6424 12.9588 41.6424 14.2901H43.6424Z" fill="white" fill-opacity="0.0782099" mask="url(#path-1-inside-1)"/>
</g>
<defs>
<filter id="filter0_d" x="0" y="0" width="64" height="44" filterUnits="userSpaceOnUse" color-interpolation-filters="sRGB">
<feFlood flood-opacity="0" result="BackgroundImageFix"/>
<feColorMatrix in="SourceAlpha" type="matrix" values="0 0 0 0 0 0 0 0 0 0 0 0 0 0 0 0 0 0 127 0"/>
<feOffset dy="4"/>
<feGaussianBlur stdDeviation="4"/>
<feColorMatrix type="matrix" values="0 0 0 0 0 0 0 0 0 0.0037911 0 0 0 0 0.170599 0 0 0 0.157184 0"/>
<feBlend mode="normal" in2="BackgroundImageFix" result="effect1_dropShadow"/>
<feBlend mode="normal" in="SourceGraphic" in2="effect1_dropShadow" result="shape"/>
</filter>
<linearGradient id="paint0_linear" x1="8" y1="4" x2="8" y2="32" gradientUnits="userSpaceOnUse">
<stop stop-color="#4D4F95"/>
<stop offset="1" stop-color="#2B2D66"/>
</linearGradient>
<linearGradient id="paint1_linear" x1="56" y1="4" x2="8" y2="4" gradientUnits="userSpaceOnUse">
<stop stop-color="#6357F6"/>
<stop offset="1" stop-color="#E6606C"/>
</linearGradient>
</defs>
</svg>
