<svg width="78" height="76" viewBox="0 0 78 76" fill="none" xmlns="http://www.w3.org/2000/svg">
<g filter="url(#filter0_d)">
<path d="M39.4653 35.2446C39.174 35.0915 38.826 35.0915 38.5346 35.2446L31.3889 39.0014C30.6553 39.3871 29.7978 38.7641 29.9379 37.9472L31.3027 29.9903C31.3583 29.6659 31.2508 29.3349 31.0151 29.1052L25.234 23.4701C24.6405 22.8915 24.968 21.8835 25.7882 21.7644L33.7774 20.6035C34.1031 20.5561 34.3847 20.3516 34.5304 20.0564L38.1033 12.817C38.4701 12.0737 39.5299 12.0737 39.8967 12.817L43.4696 20.0564C43.6153 20.3516 43.8968 20.5561 44.2225 20.6035L52.2117 21.7644C53.0319 21.8835 53.3595 22.8915 52.7659 23.4701L46.9849 29.1052C46.7492 29.3349 46.6417 29.6659 46.6973 29.9903L48.062 37.9472C48.2021 38.7641 47.3447 39.3871 46.6111 39.0014L39.4653 35.2446Z" fill="url(#paint0_linear)"/>
<path d="M39.4653 35.2446C39.174 35.0915 38.826 35.0915 38.5346 35.2446L31.3889 39.0014C30.6553 39.3871 29.7978 38.7641 29.9379 37.9472L31.3027 29.9903C31.3583 29.6659 31.2508 29.3349 31.0151 29.1052L25.234 23.4701C24.6405 22.8915 24.968 21.8835 25.7882 21.7644L33.7774 20.6035C34.1031 20.5561 34.3847 20.3516 34.5304 20.0564L38.1033 12.817C38.4701 12.0737 39.5299 12.0737 39.8967 12.817L43.4696 20.0564C43.6153 20.3516 43.8968 20.5561 44.2225 20.6035L52.2117 21.7644C53.0319 21.8835 53.3595 22.8915 52.7659 23.4701L46.9849 29.1052C46.7492 29.3349 46.6417 29.6659 46.6973 29.9903L48.062 37.9472C48.2021 38.7641 47.3447 39.3871 46.6111 39.0014L39.4653 35.2446Z" fill="url(#paint1_linear)"/>
<path d="M38.0693 34.3595L30.9236 38.1163L32.2883 30.1593C32.3995 29.5106 32.1844 28.8486 31.7131 28.3891L25.932 22.754L33.9212 21.5931C34.5727 21.4984 35.1358 21.0893 35.4271 20.499L39 13.2596L42.5729 20.499C42.8642 21.0893 43.4273 21.4984 44.0787 21.5931L52.0679 22.754L46.2869 28.3891C45.8155 28.8486 45.6004 29.5106 45.7117 30.1593L47.0764 38.1163L39.9307 34.3595C39.348 34.0532 38.652 34.0532 38.0693 34.3595Z" stroke="white" stroke-opacity="0.0782099" stroke-width="2"/>
</g>
<defs>
<filter id="filter0_d" x="0.930939" y="0.259766" width="76.1381" height="74.8589" filterUnits="userSpaceOnUse" color-interpolation-filters="sRGB">
<feFlood flood-opacity="0" result="BackgroundImageFix"/>
<feColorMatrix in="SourceAlpha" type="matrix" values="0 0 0 0 0 0 0 0 0 0 0 0 0 0 0 0 0 0 127 0"/>
<feOffset dy="12"/>
<feGaussianBlur stdDeviation="12"/>
<feColorMatrix type="matrix" values="0 0 0 0 0 0 0 0 0 0.0037911 0 0 0 0 0.170599 0 0 0 0.157184 0"/>
<feBlend mode="normal" in2="BackgroundImageFix" result="effect1_dropShadow"/>
<feBlend mode="normal" in="SourceGraphic" in2="effect1_dropShadow" result="shape"/>
</filter>
<linearGradient id="paint0_linear" x1="23" y1="11" x2="23" y2="43" gradientUnits="userSpaceOnUse">
<stop stop-color="#4D4F95"/>
<stop offset="1" stop-color="#2B2D66"/>
</linearGradient>
<linearGradient id="paint1_linear" x1="55" y1="11" x2="23" y2="11" gradientUnits="userSpaceOnUse">
<stop stop-color="#6357F6"/>
<stop offset="1" stop-color="#E6606C"/>
</linearGradient>
</defs>
</svg>
